<svg width="132" height="44" viewBox="0 0 132 44" fill="none" xmlns="http://www.w3.org/2000/svg">
<path fill-rule="evenodd" clip-rule="evenodd" d="M27.6883 11.0002V22L30.6216 21.982L33.555 21.9638L38.8902 15.1932L44.2254 8.42251L44.2693 9.67661C44.2936 10.3664 44.336 13.4209 44.3636 16.4646L44.414 21.9985H47.6814H50.9489L50.9052 17.332C50.8811 14.7654 50.8414 9.81616 50.8171 6.33357L50.7729 0.00166538L48.1868 0.00430223L45.6006 0.00693908L42.8846 3.23979C38.7624 8.1462 37.4906 9.59772 34.9044 12.3469L33.9799 13.3297L33.9456 6.68303L33.9112 0.0363608L30.7997 0.0183192L27.6883 0.000277563V11.0002ZM56.3387 4.28065C56.3136 6.63411 56.2931 11.5834 56.2931 15.2791V21.9985H59.5592H62.8254V17.5228V13.0471H67.2262H71.6269V17.5228V21.9985H74.8931H78.1593V11.0001V0.00166538H74.8931H71.6269V4.33859V8.67551H67.2262H62.8254V4.33859V0.00166538H59.6049H56.3844L56.3387 4.28065ZM83.2935 0.047949C83.2682 0.0733461 83.2476 5.02264 83.2476 11.0464V21.9985L86.1872 21.9948L89.1267 21.991L94.4521 15.2234C98.5758 9.98298 99.7879 8.48455 99.8236 8.58302C99.8489 8.65296 99.8897 11.302 99.9142 14.4696C99.9387 17.6373 99.9777 20.6272 100.001 21.1138L100.043 21.9985H103.276H106.508L106.464 14.7993C106.44 10.8397 106.4 5.88996 106.376 3.79998L106.333 0L103.75 0.0181804L101.168 0.0363608L98.1531 3.60999C94.0242 8.50481 92.6777 10.0346 90.3048 12.5267L89.5119 13.3594L89.5084 6.68053L89.5049 0.00166538H86.4221C84.7265 0.00166538 83.3186 0.0224826 83.2935 0.047949ZM123.851 0.0731379C121.956 0.121226 121.465 0.147733 119.898 0.286723C116.396 0.597038 114.173 1.34389 112.887 2.64185C111.863 3.6757 111.4 4.8654 111.325 6.66318C111.245 8.57094 111.648 9.78403 112.712 10.8431C113.64 11.7663 114.9 12.4476 117.233 13.2879C117.413 13.3526 117.56 13.4311 117.56 13.4622C117.56 13.7793 115.803 15.7995 111.389 20.5593L110.053 21.9997L113.751 21.9818L117.45 21.9638L121.373 17.4534L125.295 12.943L125.343 14.5737C125.369 15.4706 125.411 17.5081 125.437 19.1015L125.483 21.9985H128.742H132L131.983 11.0175L131.965 0.0363608L128.871 0.0303238C127.169 0.026993 124.91 0.0462837 123.851 0.0731379ZM9.84462 0.113662C9.30986 0.170216 9.26888 0.196237 9.06259 0.610084C8.60244 1.53326 6.53526 6.38076 2.69348 15.5452C1.22962 19.0373 0.0176237 21.9182 0.000158253 21.9472C-0.0173072 21.9762 1.41314 21.9918 3.17901 21.9819L6.38969 21.9638L7.72449 18.4943C10.543 11.168 11.9981 7.49587 12.0825 7.49587C12.2628 7.49587 13.5363 10.6024 16.3351 17.8698L17.9117 21.9638L21.0809 21.9819C22.8241 21.9918 24.2502 21.9733 24.2502 21.9407C24.2502 21.7939 21.3055 14.5444 19.6229 10.5491C17.2152 4.83147 15.2537 0.198041 15.2315 0.175836C15.195 0.139059 10.1544 0.0808403 9.84462 0.113662ZM125.467 7.11422V9.85516L123.903 9.85509C121.415 9.85502 120.074 9.65767 119.137 9.15355C118.604 8.86669 118.089 8.30226 117.936 7.83644C117.77 7.33405 117.819 6.32643 118.029 5.9191C118.454 5.09259 119.38 4.63454 120.998 4.4501C121.281 4.41776 122.403 4.38723 123.49 4.38231L125.467 4.37328V7.11422Z" fill="#2954A2"/>
<path d="M0 30.8001V29.7001V28.6001H66H132V29.7001V30.8001H66H0Z" fill="#E30D0F"/>
<path d="M0 43.9999V37.3999H4.62737V38.5999H1.5277V43.9999H0Z" fill="#2954A2"/>
<path d="M11.3375 37.3999H12.8763V40.787C12.8763 41.2515 12.8652 41.6483 12.8431 41.9773H12.8763C13.0312 41.6805 13.4113 41.0999 14.0165 40.2354L15.9981 37.3999H17.4483V43.9999H15.9206V40.7193C15.9206 40.5064 15.9317 40.0902 15.9538 39.4709H15.9206C15.7951 39.6902 15.356 40.3386 14.6032 41.416L12.7877 43.9999H11.3375V37.3999Z" fill="#2954A2"/>
<path d="M29.2874 43.9999V38.5999H26.3759V43.9999H24.8372V37.3999H30.8262V43.9999H29.2874Z" fill="#2954A2"/>
<path d="M42.7019 37.3999V38.5999H39.7793V40.0225H42.6022V41.1644H39.7793V42.7999H42.8236V43.9999H38.1963V37.3999H42.7019Z" fill="#2954A2"/>
<path d="M53.7604 39.5386C53.7604 39.2418 53.6534 38.9967 53.4394 38.8031C53.2254 38.6096 52.9007 38.5128 52.4652 38.5128H51.6682V40.5547H52.432C53.3176 40.5547 53.7604 40.216 53.7604 39.5386ZM50.0851 43.9999V37.3999H52.4984C53.3472 37.3999 54.0335 37.5805 54.5575 37.9418C55.0889 38.2967 55.3546 38.8225 55.3546 39.5193C55.3546 40.1967 55.111 40.7257 54.6239 41.1064C54.1368 41.4805 53.4099 41.6676 52.4431 41.6676H51.6682V43.9999H50.0851Z" fill="#2954A2"/>
<path d="M69.2417 37.3999L70.1716 43.9999H68.6439L68.2786 40.758C68.2195 40.2676 68.1679 39.7838 68.1236 39.3064H68.0572C68.0572 39.3128 67.9944 39.5128 67.869 39.9064C67.7509 40.2999 67.6623 40.587 67.6033 40.7676L66.5073 43.9999H65.4003L64.2822 40.7193C64.0608 40.087 63.9169 39.616 63.8505 39.3064H63.7619C63.7471 39.5967 63.7066 40.0612 63.6401 40.6999L63.2527 43.9999H61.8246L62.7213 37.3999H64.4704L65.5774 40.516C65.7545 41.0128 65.8874 41.416 65.976 41.7257H66.0202C66.0867 41.4999 66.2195 41.0967 66.4188 40.516L67.5037 37.3999H69.2417Z" fill="#2954A2"/>
<path d="M76.4956 43.9999L79.4293 37.3999H80.9127L83.6913 43.9999H82.064L81.4773 42.4999H78.6875L78.0898 43.9999H76.4956ZM79.6949 39.9451L79.0639 41.5128H81.0898L80.4699 39.9354C80.3223 39.5612 80.2042 39.2257 80.1156 38.9289H80.0603C79.9643 39.2644 79.8425 39.6031 79.6949 39.9451Z" fill="#2954A2"/>
<path d="M94.0648 39.5386C94.0648 39.2418 93.9578 38.9967 93.7438 38.8031C93.5298 38.6096 93.205 38.5128 92.7696 38.5128H91.9725V40.5547H92.7364C93.622 40.5547 94.0648 40.216 94.0648 39.5386ZM90.3895 43.9999V37.3999H92.8028C93.6515 37.3999 94.3379 37.5805 94.8619 37.9418C95.3932 38.2967 95.6589 38.8225 95.6589 39.5193C95.6589 40.1967 95.4154 40.7257 94.9283 41.1064C94.4412 41.4805 93.7143 41.6676 92.7475 41.6676H91.9725V43.9999H90.3895Z" fill="#2954A2"/>
<path d="M107.166 43.9999L104.088 40.9612V43.9999H102.505V37.3999H104.088V40.3902L107.133 37.3999H109.07L105.649 40.5935L109.181 43.9999H107.166Z" fill="#2954A2"/>
<path d="M120.089 37.3999V38.5999H117.166V40.0225H119.989V41.1644H117.166V42.7999H120.211V43.9999H115.583V37.3999H120.089Z" fill="#2954A2"/>
<path d="M128.601 43.9999V38.5999H126.808V37.3999H132V38.5999H130.196V43.9999H128.601Z" fill="#2954A2"/>
</svg>
