<?xml version="1.0" encoding="utf-8"?>
<!-- Generator: Adobe Illustrator 27.0.0, SVG Export Plug-In . SVG Version: 6.00 Build 0)  -->
<svg version="1.1" id="Слой_1" xmlns="http://www.w3.org/2000/svg" xmlns:xlink="http://www.w3.org/1999/xlink" x="0px" y="0px"
	 viewBox="0 0 371 158" style="enable-background:new 0 0 371 158;" xml:space="preserve">
<style type="text/css">
	.st0{fill:none;stroke:#ED1C24;stroke-width:2;stroke-miterlimit:10;}
</style>
<g>
	<g>
		<path d="M114.3,18.6h-1.9l-0.8-2h-3.4l-0.7,2h-1.8l3.3-8.6h1.8L114.3,18.6z M111.1,15.2l-1.2-3.2l-1.2,3.2H111.1z"/>
		<path d="M114.7,14.3c0-0.9,0.1-1.6,0.4-2.2c0.2-0.4,0.5-0.8,0.8-1.2s0.7-0.6,1.1-0.8c0.5-0.2,1.2-0.3,1.9-0.3c1.3,0,2.3,0.4,3,1.2
			s1.1,1.9,1.1,3.3c0,1.4-0.4,2.5-1.1,3.3s-1.8,1.2-3,1.2c-1.3,0-2.3-0.4-3-1.2S114.7,15.7,114.7,14.3z M116.5,14.3
			c0,1,0.2,1.7,0.7,2.2s1,0.8,1.7,0.8s1.3-0.2,1.7-0.7s0.7-1.2,0.7-2.2c0-1-0.2-1.7-0.6-2.2s-1-0.7-1.7-0.7s-1.3,0.2-1.7,0.7
			S116.5,13.3,116.5,14.3z"/>
		<path d="M130.6,12.8l-1.5,2.6l1.5,2.7h-1.3l-1.9-2.7l1.9-2.6H130.6z M132.9,12.8l-1.5,2.6l1.5,2.7h-1.3l-1.9-2.7l1.9-2.6H132.9z"
			/>
		<path d="M134.5,10h1.7v3.7c0.4,0,0.6-0.1,0.8-0.3s0.3-0.6,0.6-1.3c0.4-0.9,0.7-1.5,1.1-1.7c0.4-0.2,0.9-0.3,1.7-0.3
			c0,0,0.1,0,0.3,0v1.3l-0.2,0c-0.4,0-0.6,0-0.8,0.1s-0.3,0.2-0.4,0.4s-0.3,0.5-0.5,1.1c-0.1,0.3-0.2,0.5-0.3,0.7s-0.3,0.4-0.7,0.6
			c0.4,0.1,0.7,0.3,1,0.7s0.5,0.8,0.8,1.4l1.2,2.4h-2l-1-2.2c0,0,0-0.1-0.1-0.2c0,0-0.1-0.2-0.2-0.4c-0.2-0.4-0.4-0.7-0.5-0.8
			s-0.4-0.2-0.7-0.2v3.8h-1.7V10z"/>
		<path d="M141.4,14.3c0-0.9,0.1-1.6,0.4-2.2c0.2-0.4,0.5-0.8,0.8-1.2s0.7-0.6,1.1-0.8c0.5-0.2,1.2-0.3,1.9-0.3c1.3,0,2.3,0.4,3,1.2
			s1.1,1.9,1.1,3.3c0,1.4-0.4,2.5-1.1,3.3s-1.8,1.2-3,1.2c-1.3,0-2.3-0.4-3-1.2S141.4,15.7,141.4,14.3z M143.2,14.3
			c0,1,0.2,1.7,0.7,2.2s1,0.8,1.7,0.8s1.3-0.2,1.7-0.7s0.7-1.2,0.7-2.2c0-1-0.2-1.7-0.6-2.2s-1-0.7-1.7-0.7s-1.3,0.2-1.7,0.7
			S143.2,13.3,143.2,14.3z"/>
		<path d="M151.1,18.6V10h2.8c1.1,0,1.7,0,2.1,0.1c0.5,0.1,0.9,0.4,1.2,0.8s0.5,1,0.5,1.7c0,0.5-0.1,1-0.3,1.3s-0.4,0.6-0.7,0.8
			s-0.6,0.3-0.9,0.4c-0.4,0.1-1,0.1-1.8,0.1h-1.1v3.2H151.1z M152.8,11.5v2.4h0.9c0.7,0,1.1,0,1.4-0.1s0.4-0.2,0.5-0.4
			s0.2-0.4,0.2-0.7c0-0.3-0.1-0.6-0.3-0.8s-0.4-0.3-0.7-0.4c-0.2,0-0.6-0.1-1.2-0.1H152.8z"/>
		<path d="M159.1,10h6.8v8.6h-1.7v-7.1h-3.4v7.1h-1.7V10z"/>
		<path d="M167.4,14.3c0-0.9,0.1-1.6,0.4-2.2c0.2-0.4,0.5-0.8,0.8-1.2s0.7-0.6,1.1-0.8c0.5-0.2,1.2-0.3,1.9-0.3c1.3,0,2.3,0.4,3,1.2
			s1.1,1.9,1.1,3.3c0,1.4-0.4,2.5-1.1,3.3s-1.8,1.2-3,1.2c-1.3,0-2.3-0.4-3-1.2S167.4,15.7,167.4,14.3z M169.1,14.3
			c0,1,0.2,1.7,0.7,2.2s1,0.8,1.7,0.8s1.3-0.2,1.7-0.7s0.7-1.2,0.7-2.2c0-1-0.2-1.7-0.6-2.2s-1-0.7-1.7-0.7s-1.3,0.2-1.7,0.7
			S169.1,13.3,169.1,14.3z"/>
		<path d="M177,18.6V10h2.8c1.1,0,1.7,0,2.1,0.1c0.5,0.1,0.9,0.4,1.2,0.8s0.5,1,0.5,1.7c0,0.5-0.1,1-0.3,1.3s-0.4,0.6-0.7,0.8
			s-0.6,0.3-0.9,0.4c-0.4,0.1-1,0.1-1.8,0.1h-1.1v3.2H177z M178.8,11.5v2.4h0.9c0.7,0,1.1,0,1.4-0.1s0.4-0.2,0.5-0.4
			s0.2-0.4,0.2-0.7c0-0.3-0.1-0.6-0.3-0.8s-0.4-0.3-0.7-0.4c-0.2,0-0.6-0.1-1.2-0.1H178.8z"/>
		<path d="M191.7,18.6h-1.9l-0.8-2h-3.4l-0.7,2h-1.8l3.3-8.6h1.8L191.7,18.6z M188.6,15.2l-1.2-3.2l-1.2,3.2H188.6z"/>
		<path d="M192.7,10h1.7v7.1h3.4V10h1.7v7.1h0.7v3.3h-1.4v-1.9h-6.1V10z"/>
		<path d="M201.5,10h1.6v5.7l3.5-5.7h1.7v8.6h-1.6V13l-3.5,5.6h-1.7V10z"/>
		<path d="M215.2,18.6V15h-0.4c-0.5,0-0.9,0.1-1.2,0.2s-0.6,0.7-1.2,1.5l-1.3,1.9h-2.1l1-1.7c0.4-0.7,0.7-1.1,1-1.4s0.6-0.5,0.9-0.7
			c-0.8-0.1-1.4-0.4-1.7-0.8s-0.5-0.9-0.5-1.5c0-0.5,0.1-1,0.4-1.4s0.6-0.7,1-0.8s1.1-0.2,1.9-0.2h3.7v8.6H215.2z M215.2,11.5h-1.4
			c-0.7,0-1.1,0-1.4,0s-0.4,0.1-0.6,0.3s-0.2,0.4-0.2,0.7c0,0.3,0.1,0.5,0.2,0.7s0.3,0.3,0.6,0.3s0.7,0.1,1.4,0.1h1.3V11.5z"/>
		<path d="M222.1,10h5.8v1.4h-4.1v7.1h-1.7V10z"/>
		<path d="M228.8,18.6V10h2.8c1.1,0,1.7,0,2.1,0.1c0.5,0.1,0.9,0.4,1.2,0.8s0.5,1,0.5,1.7c0,0.5-0.1,1-0.3,1.3s-0.4,0.6-0.7,0.8
			s-0.6,0.3-0.9,0.4c-0.4,0.1-1,0.1-1.8,0.1h-1.1v3.2H228.8z M230.6,11.5v2.4h0.9c0.7,0,1.1,0,1.4-0.1s0.4-0.2,0.5-0.4
			s0.2-0.4,0.2-0.7c0-0.3-0.1-0.6-0.3-0.8s-0.4-0.3-0.7-0.4c-0.2,0-0.6-0.1-1.2-0.1H230.6z"/>
		<path d="M236.8,10h1.6v5.7l3.5-5.7h1.7v8.6h-1.6V13l-3.5,5.6h-1.7V10z"/>
		<path d="M245.5,18.6V10h1.7v3.4h3.4V10h1.7v8.6h-1.7v-3.8h-3.4v3.8H245.5z"/>
		<path d="M254.1,18.6V10h1.7v3.4h3.4V10h1.7v8.6h-1.7v-3.8h-3.4v3.8H254.1z"/>
		<path d="M262.5,18.2l1.5-2.6l-1.5-2.7h1.3l1.9,2.7l-1.9,2.6H262.5z M264.8,18.2l1.5-2.6l-1.5-2.7h1.3l1.9,2.7l-1.9,2.6H264.8z"/>
		<path d="M107.4,29.8l1.7,0.5c-0.3,0.9-0.7,1.6-1.3,2.1s-1.4,0.7-2.3,0.7c-1.1,0-2.1-0.4-2.8-1.2s-1.1-1.8-1.1-3.2
			c0-1.4,0.4-2.5,1.1-3.3s1.7-1.2,2.9-1.2c1.1,0,1.9,0.3,2.6,0.9c0.4,0.4,0.7,0.9,0.9,1.6l-1.7,0.4c-0.1-0.4-0.3-0.8-0.6-1.1
			s-0.7-0.4-1.2-0.4c-0.6,0-1.2,0.2-1.5,0.7s-0.6,1.2-0.6,2.2c0,1.1,0.2,1.9,0.6,2.3s0.9,0.7,1.5,0.7c0.5,0,0.9-0.1,1.2-0.4
			S107.2,30.5,107.4,29.8z"/>
		<path d="M109.8,26.8h1.8l1.5,4.4l1.5-4.4h1.7l-2.2,6l-0.4,1.1c-0.1,0.4-0.3,0.6-0.4,0.8s-0.3,0.3-0.5,0.5s-0.4,0.2-0.6,0.3
			s-0.5,0.1-0.8,0.1c-0.3,0-0.6,0-0.9-0.1l-0.1-1.3c0.3,0.1,0.5,0.1,0.7,0.1c0.4,0,0.7-0.1,0.8-0.3s0.3-0.5,0.4-0.9L109.8,26.8z"/>
		<path d="M117.2,26.8h5.5V33H121v-4.9h-2.2V33h-1.6V26.8z"/>
		<path d="M128.1,31l1.6,0.3c-0.2,0.6-0.5,1.1-1,1.4s-1,0.5-1.7,0.5c-1.1,0-1.9-0.4-2.4-1.1c-0.4-0.6-0.6-1.3-0.6-2.1
			c0-1,0.3-1.8,0.8-2.4s1.2-0.9,2-0.9c0.9,0,1.7,0.3,2.2,0.9s0.8,1.5,0.8,2.8h-4.1c0,0.5,0.1,0.9,0.4,1.1s0.6,0.4,0.9,0.4
			c0.3,0,0.5-0.1,0.7-0.2S128,31.3,128.1,31z M128.2,29.3c0-0.5-0.1-0.8-0.4-1.1s-0.5-0.4-0.9-0.4c-0.4,0-0.7,0.1-0.9,0.4
			s-0.3,0.6-0.3,1.1H128.2z"/>
		<path d="M131.1,26.8h1.5v0.9c0.2-0.3,0.5-0.6,0.8-0.8s0.7-0.3,1.1-0.3c0.7,0,1.3,0.3,1.8,0.8s0.8,1.4,0.8,2.4c0,1-0.3,1.8-0.8,2.4
			s-1.1,0.9-1.8,0.9c-0.3,0-0.7-0.1-0.9-0.2s-0.6-0.4-0.9-0.7v3.1h-1.6V26.8z M132.7,29.8c0,0.7,0.1,1.2,0.4,1.5s0.6,0.5,1,0.5
			c0.4,0,0.7-0.2,1-0.5s0.4-0.8,0.4-1.5c0-0.7-0.1-1.1-0.4-1.5s-0.6-0.5-1-0.5c-0.4,0-0.7,0.2-1,0.5S132.7,29.2,132.7,29.8z"/>
		<path d="M138.4,26.8h2l1.5,4.3l1.6-4.3h2V33h-1.4v-4.1l-1.5,4.1h-1.4l-1.4-4.1V33h-1.4V26.8z"/>
		<path d="M148.3,28.7l-1.5-0.3c0.2-0.6,0.5-1,0.9-1.3s1-0.4,1.8-0.4c0.7,0,1.3,0.1,1.6,0.3s0.6,0.4,0.8,0.7s0.2,0.8,0.2,1.5l0,1.9
			c0,0.5,0,1,0.1,1.2s0.2,0.5,0.3,0.8h-1.6c0-0.1-0.1-0.3-0.2-0.5c0-0.1,0-0.2-0.1-0.2c-0.3,0.3-0.6,0.5-0.9,0.6s-0.7,0.2-1,0.2
			c-0.6,0-1.1-0.2-1.5-0.5s-0.6-0.8-0.6-1.3c0-0.4,0.1-0.7,0.3-0.9s0.4-0.5,0.7-0.6s0.7-0.3,1.3-0.4c0.8-0.1,1.3-0.3,1.6-0.4v-0.2
			c0-0.3-0.1-0.5-0.2-0.7s-0.5-0.2-0.9-0.2c-0.3,0-0.5,0.1-0.7,0.2S148.4,28.4,148.3,28.7z M150.5,30c-0.2,0.1-0.5,0.2-1,0.3
			s-0.8,0.2-0.9,0.3c-0.2,0.2-0.3,0.3-0.3,0.6c0,0.2,0.1,0.4,0.3,0.6s0.4,0.3,0.7,0.3c0.3,0,0.6-0.1,0.8-0.3
			c0.2-0.1,0.3-0.3,0.4-0.5c0-0.1,0.1-0.4,0.1-0.8V30z"/>
		<path d="M153.7,26.8h1.5v0.9c0.2-0.3,0.5-0.6,0.8-0.8s0.7-0.3,1.1-0.3c0.7,0,1.3,0.3,1.8,0.8s0.8,1.4,0.8,2.4c0,1-0.3,1.8-0.8,2.4
			s-1.1,0.9-1.8,0.9c-0.3,0-0.7-0.1-0.9-0.2s-0.6-0.4-0.9-0.7v3.1h-1.6V26.8z M155.3,29.8c0,0.7,0.1,1.2,0.4,1.5s0.6,0.5,1,0.5
			c0.4,0,0.7-0.2,1-0.5s0.4-0.8,0.4-1.5c0-0.7-0.1-1.1-0.4-1.5s-0.6-0.5-1-0.5c-0.4,0-0.7,0.2-1,0.5S155.3,29.2,155.3,29.8z"/>
		<path d="M161,26.8h1.6v2.5c0.3,0,0.5-0.1,0.6-0.3s0.2-0.4,0.4-0.9c0.2-0.6,0.4-1,0.7-1.2s0.6-0.3,1-0.3c0.1,0,0.3,0,0.7,0l0,1.1
			c-0.4,0-0.7,0-0.8,0.1c-0.1,0.1-0.3,0.3-0.4,0.8c-0.2,0.6-0.5,0.9-0.8,1.1c0.5,0.1,1,0.6,1.3,1.4c0,0,0,0.1,0.1,0.1l0.9,1.7h-1.8
			l-0.8-1.8c-0.2-0.4-0.3-0.6-0.4-0.7s-0.3-0.2-0.5-0.2V33H161V26.8z"/>
		<path d="M170.6,31l1.6,0.3c-0.2,0.6-0.5,1.1-1,1.4s-1,0.5-1.7,0.5c-1.1,0-1.9-0.4-2.4-1.1c-0.4-0.6-0.6-1.3-0.6-2.1
			c0-1,0.3-1.8,0.8-2.4s1.2-0.9,2-0.9c0.9,0,1.7,0.3,2.2,0.9s0.8,1.5,0.8,2.8h-4.1c0,0.5,0.1,0.9,0.4,1.1s0.6,0.4,0.9,0.4
			c0.3,0,0.5-0.1,0.7-0.2S170.6,31.3,170.6,31z M170.7,29.3c0-0.5-0.1-0.8-0.4-1.1s-0.5-0.4-0.9-0.4c-0.4,0-0.7,0.1-0.9,0.4
			s-0.3,0.6-0.3,1.1H170.7z"/>
		<path d="M172.8,26.8h5.6v1.3h-2V33h-1.6v-4.9h-2V26.8z"/>
		<path d="M185.6,27.2l-1.5,2.6l1.5,2.7h-1.3l-1.9-2.7l1.9-2.6H185.6z M187.9,27.2l-1.5,2.6l1.5,2.7h-1.3l-1.9-2.7l1.9-2.6H187.9z"
			/>
		<path d="M190.1,24.4h6V33h-1.7v-7.1h-2.6v3.7c0,1.1,0,1.8-0.1,2.2s-0.2,0.7-0.5,1s-0.7,0.3-1.3,0.3c-0.2,0-0.6,0-1.1-0.1v-1.3
			l0.4,0c0.4,0,0.6,0,0.7-0.1s0.2-0.3,0.2-0.7l0-1.5V24.4z"/>
		<path d="M197.8,26.8h1.6v3.9l2.5-3.9h1.6V33H202v-4l-2.6,4h-1.6V26.8z"/>
		<path d="M205.2,26.8h1.6V29h2.4v-2.3h1.7V33h-1.7v-2.6h-2.4V33h-1.6V26.8z"/>
		<path d="M212.4,26.8h1.6v3.9l2.5-3.9h1.6V33h-1.6v-4l-2.6,4h-1.6V26.8z"/>
		<path d="M225.2,26.8V33h-1.6v-2.6h-0.2c-0.4,0-0.6,0-0.8,0.1s-0.4,0.3-0.6,0.6l-0.1,0.1l-1.1,1.7H219l1.2-1.8
			c0.3-0.5,0.6-0.8,0.9-0.9c-0.5,0-0.8-0.2-1.1-0.5s-0.4-0.7-0.4-1.2c0-0.4,0.1-0.7,0.3-1s0.4-0.5,0.8-0.6s0.8-0.2,1.4-0.2H225.2z
			 M223.6,27.8h-1.2c-0.4,0-0.7,0.1-0.9,0.2s-0.3,0.3-0.3,0.6s0.1,0.5,0.3,0.6s0.5,0.2,1,0.2h1.1V27.8z"/>
		<path d="M226.7,30.7v-1.6h3.2v1.6H226.7z"/>
		<path d="M236.4,29.8l1.7,0.5c-0.3,0.9-0.7,1.6-1.3,2.1s-1.4,0.7-2.3,0.7c-1.1,0-2.1-0.4-2.8-1.2s-1.1-1.8-1.1-3.2
			c0-1.4,0.4-2.5,1.1-3.3s1.7-1.2,2.9-1.2c1.1,0,1.9,0.3,2.6,0.9c0.4,0.4,0.7,0.9,0.9,1.6l-1.7,0.4c-0.1-0.4-0.3-0.8-0.6-1.1
			s-0.7-0.4-1.2-0.4c-0.6,0-1.2,0.2-1.5,0.7s-0.6,1.2-0.6,2.2c0,1.1,0.2,1.9,0.6,2.3s0.9,0.7,1.5,0.7c0.5,0,0.9-0.1,1.2-0.4
			S236.2,30.5,236.4,29.8z"/>
		<path d="M238.7,26.8h1.8l1.5,4.4l1.5-4.4h1.7l-2.2,6l-0.4,1.1c-0.1,0.4-0.3,0.6-0.4,0.8s-0.3,0.3-0.5,0.5s-0.4,0.2-0.6,0.3
			s-0.5,0.1-0.8,0.1c-0.3,0-0.6,0-0.9-0.1l-0.1-1.3c0.3,0.1,0.5,0.1,0.7,0.1c0.4,0,0.7-0.1,0.8-0.3s0.3-0.5,0.4-0.9L238.7,26.8z"/>
		<path d="M246.1,26.8h5.5V33H250v-4.9h-2.2V33h-1.6V26.8z"/>
		<path d="M257.1,31l1.6,0.3c-0.2,0.6-0.5,1.1-1,1.4s-1,0.5-1.7,0.5c-1.1,0-1.9-0.4-2.4-1.1c-0.4-0.6-0.6-1.3-0.6-2.1
			c0-1,0.3-1.8,0.8-2.4s1.2-0.9,2-0.9c0.9,0,1.7,0.3,2.2,0.9s0.8,1.5,0.8,2.8h-4.1c0,0.5,0.1,0.9,0.4,1.1s0.6,0.4,0.9,0.4
			c0.3,0,0.5-0.1,0.7-0.2S257,31.3,257.1,31z M257.1,29.3c0-0.5-0.1-0.8-0.4-1.1s-0.5-0.4-0.9-0.4c-0.4,0-0.7,0.1-0.9,0.4
			s-0.3,0.6-0.3,1.1H257.1z"/>
		<path d="M260.1,26.8h1.5v0.9c0.2-0.3,0.5-0.6,0.8-0.8s0.7-0.3,1.1-0.3c0.7,0,1.3,0.3,1.8,0.8s0.8,1.4,0.8,2.4c0,1-0.3,1.8-0.8,2.4
			s-1.1,0.9-1.8,0.9c-0.3,0-0.7-0.1-0.9-0.2s-0.6-0.4-0.9-0.7v3.1h-1.6V26.8z M261.7,29.8c0,0.7,0.1,1.2,0.4,1.5s0.6,0.5,1,0.5
			c0.4,0,0.7-0.2,1-0.5s0.4-0.8,0.4-1.5c0-0.7-0.1-1.1-0.4-1.5s-0.6-0.5-1-0.5c-0.4,0-0.7,0.2-1,0.5S261.7,29.2,261.7,29.8z"/>
		<path d="M267.2,32.6l1.5-2.6l-1.5-2.7h1.3l1.9,2.7l-1.9,2.6H267.2z M269.5,32.6l1.5-2.6l-1.5-2.7h1.3l1.9,2.7l-1.9,2.6H269.5z"/>
		<path d="M71,45.1l1.6-0.2c0.1,0.4,0.2,0.7,0.4,0.9s0.5,0.3,0.8,0.3c0.3,0,0.6-0.1,0.9-0.4s0.3-0.6,0.3-1c0-0.4-0.1-0.7-0.3-1
			s-0.5-0.4-0.8-0.4c-0.2,0-0.5,0-0.8,0.1l0.2-1.3c0.4,0,0.8-0.1,1-0.3s0.4-0.5,0.4-0.8c0-0.3-0.1-0.5-0.3-0.7s-0.4-0.3-0.7-0.3
			c-0.3,0-0.5,0.1-0.7,0.3s-0.3,0.5-0.4,0.9L71.2,41c0.1-0.5,0.3-0.9,0.5-1.2s0.5-0.6,0.9-0.7s0.8-0.3,1.3-0.3
			c0.8,0,1.5,0.3,1.9,0.8c0.4,0.4,0.6,0.9,0.6,1.4c0,0.8-0.4,1.4-1.2,1.8c0.5,0.1,0.9,0.3,1.2,0.7s0.4,0.8,0.4,1.3
			c0,0.8-0.3,1.4-0.8,1.9s-1.2,0.8-2.1,0.8c-0.8,0-1.4-0.2-1.9-0.7S71.1,45.8,71,45.1z"/>
		<path d="M80.5,38.8c0.8,0,1.5,0.3,2,0.9c0.6,0.7,0.8,1.9,0.8,3.5c0,1.6-0.3,2.8-0.8,3.5c-0.5,0.6-1.1,0.9-1.9,0.9
			c-0.8,0-1.5-0.3-2-1s-0.8-1.8-0.8-3.4c0-1.6,0.3-2.8,0.8-3.5C79.1,39.1,79.7,38.8,80.5,38.8z M80.5,40.1c-0.2,0-0.4,0.1-0.5,0.2
			s-0.3,0.4-0.4,0.7c-0.1,0.4-0.2,1.1-0.2,2.2s0.1,1.7,0.2,2.1s0.2,0.6,0.4,0.8s0.3,0.2,0.5,0.2s0.4-0.1,0.5-0.2s0.3-0.4,0.4-0.7
			c0.1-0.4,0.2-1.1,0.2-2.1s-0.1-1.7-0.2-2.1s-0.2-0.6-0.4-0.8S80.7,40.1,80.5,40.1z"/>
		<path d="M84.5,45.2l1.6-0.2c0,0.4,0.2,0.7,0.4,0.9s0.5,0.3,0.8,0.3c0.3,0,0.6-0.1,0.9-0.4s0.4-0.7,0.4-1.3c0-0.5-0.1-0.9-0.4-1.2
			S87.6,43,87.3,43c-0.5,0-0.9,0.2-1.3,0.6l-1.3-0.2l0.8-4.5h4.4v1.5h-3.1l-0.3,1.5c0.4-0.2,0.7-0.3,1.1-0.3c0.7,0,1.3,0.3,1.9,0.8
			s0.8,1.2,0.8,2.1c0,0.7-0.2,1.3-0.6,1.9c-0.6,0.8-1.3,1.1-2.3,1.1c-0.8,0-1.4-0.2-1.9-0.6S84.6,45.9,84.5,45.2z"/>
		<path d="M93.9,38.8c0.8,0,1.5,0.3,2,0.9c0.6,0.7,0.8,1.9,0.8,3.5c0,1.6-0.3,2.8-0.8,3.5c-0.5,0.6-1.1,0.9-1.9,0.9
			c-0.8,0-1.5-0.3-2-1s-0.8-1.8-0.8-3.4c0-1.6,0.3-2.8,0.8-3.5C92.4,39.1,93.1,38.8,93.9,38.8z M93.9,40.1c-0.2,0-0.4,0.1-0.5,0.2
			S93.1,40.7,93,41c-0.1,0.4-0.2,1.1-0.2,2.2s0.1,1.7,0.2,2.1s0.2,0.6,0.4,0.8s0.3,0.2,0.5,0.2s0.4-0.1,0.5-0.2s0.3-0.4,0.4-0.7
			c0.1-0.4,0.2-1.1,0.2-2.1s-0.1-1.7-0.2-2.1s-0.2-0.6-0.4-0.8S94.1,40.1,93.9,40.1z"/>
		<path d="M100.6,38.8c0.8,0,1.5,0.3,2,0.9c0.6,0.7,0.8,1.9,0.8,3.5c0,1.6-0.3,2.8-0.8,3.5c-0.5,0.6-1.1,0.9-1.9,0.9
			c-0.8,0-1.5-0.3-2-1s-0.8-1.8-0.8-3.4c0-1.6,0.3-2.8,0.8-3.5C99.1,39.1,99.7,38.8,100.6,38.8z M100.6,40.1c-0.2,0-0.4,0.1-0.5,0.2
			s-0.3,0.4-0.4,0.7c-0.1,0.4-0.2,1.1-0.2,2.2s0.1,1.7,0.2,2.1s0.2,0.6,0.4,0.8s0.3,0.2,0.5,0.2s0.4-0.1,0.5-0.2s0.3-0.4,0.4-0.7
			c0.1-0.4,0.2-1.1,0.2-2.1s-0.1-1.7-0.2-2.1s-0.2-0.6-0.4-0.8S100.8,40.1,100.6,40.1z"/>
		<path d="M108.7,47.4H107v-6.2c-0.6,0.6-1.3,1-2.1,1.2v-1.5c0.4-0.1,0.9-0.4,1.4-0.8s0.8-0.9,1-1.4h1.3V47.4z"/>
		<path d="M111.4,45.7h1.6v1.2c0,0.5,0,0.9-0.1,1.1s-0.2,0.5-0.5,0.7s-0.5,0.4-0.9,0.5l-0.3-0.7c0.3-0.1,0.6-0.3,0.7-0.5
			s0.2-0.5,0.2-0.8h-0.8V45.7z"/>
		<path d="M118.1,41.2h4.2v1.3h-2.6v4.9h-1.6V41.2z"/>
		<path d="M121.9,47.4v-1.6h1.6v1.6H121.9z"/>
		<path d="M128.7,38.8h1.7v3.7c0.4,0,0.6-0.1,0.8-0.3s0.3-0.6,0.6-1.3c0.4-0.9,0.7-1.5,1.1-1.7c0.4-0.2,0.9-0.3,1.7-0.3
			c0,0,0.1,0,0.3,0V40l-0.2,0c-0.4,0-0.6,0-0.8,0.1s-0.3,0.2-0.4,0.4s-0.3,0.5-0.5,1.1c-0.1,0.3-0.2,0.5-0.3,0.7s-0.3,0.4-0.7,0.6
			c0.4,0.1,0.7,0.3,1,0.7s0.5,0.8,0.8,1.4l1.2,2.4h-2l-1-2.2c0,0,0-0.1-0.1-0.2c0,0-0.1-0.2-0.2-0.4c-0.2-0.4-0.4-0.7-0.5-0.8
			s-0.4-0.2-0.7-0.2v3.8h-1.7V38.8z"/>
		<path d="M135.2,41.2h1.8l1.5,4.4l1.5-4.4h1.7l-2.2,6l-0.4,1.1c-0.1,0.4-0.3,0.6-0.4,0.8s-0.3,0.3-0.5,0.5s-0.4,0.2-0.6,0.3
			s-0.5,0.1-0.8,0.1c-0.3,0-0.6,0-0.9-0.1l-0.1-1.3c0.3,0.1,0.5,0.1,0.7,0.1c0.4,0,0.7-0.1,0.8-0.3s0.3-0.5,0.4-0.9L135.2,41.2z"/>
		<path d="M142.4,41.2h1.5v0.9c0.2-0.3,0.5-0.6,0.8-0.8s0.7-0.3,1.1-0.3c0.7,0,1.3,0.3,1.8,0.8s0.8,1.4,0.8,2.4c0,1-0.3,1.8-0.8,2.4
			s-1.1,0.9-1.8,0.9c-0.3,0-0.7-0.1-0.9-0.2s-0.6-0.4-0.9-0.7v3.1h-1.6V41.2z M144,44.2c0,0.7,0.1,1.2,0.4,1.5s0.6,0.5,1,0.5
			c0.4,0,0.7-0.2,1-0.5s0.4-0.8,0.4-1.5c0-0.7-0.1-1.1-0.4-1.5s-0.6-0.5-1-0.5c-0.4,0-0.7,0.2-1,0.5S144,43.6,144,44.2z"/>
		<path d="M155.2,43l-1.6,0.3c-0.1-0.3-0.2-0.6-0.4-0.7s-0.4-0.2-0.8-0.2c-0.4,0-0.7,0.1-1,0.4s-0.4,0.8-0.4,1.4
			c0,0.7,0.1,1.3,0.4,1.6s0.6,0.5,1,0.5c0.3,0,0.6-0.1,0.8-0.3s0.3-0.5,0.4-0.9l1.6,0.3c-0.2,0.7-0.5,1.3-1,1.7s-1.1,0.6-1.9,0.6
			c-0.9,0-1.6-0.3-2.2-0.9s-0.8-1.4-0.8-2.4c0-1,0.3-1.8,0.8-2.4s1.3-0.9,2.2-0.9c0.8,0,1.4,0.2,1.8,0.5S155,42.3,155.2,43z"/>
		<path d="M156.4,41.2h1.6v2.5c0.3,0,0.5-0.1,0.6-0.3s0.2-0.4,0.4-0.9c0.2-0.6,0.4-1,0.7-1.2s0.6-0.3,1-0.3c0.1,0,0.3,0,0.7,0l0,1.1
			c-0.4,0-0.7,0-0.8,0.1c-0.1,0.1-0.3,0.3-0.4,0.8c-0.2,0.6-0.5,0.9-0.8,1.1c0.5,0.1,1,0.6,1.3,1.4c0,0,0,0.1,0.1,0.1l0.9,1.7h-1.8
			l-0.8-1.8c-0.2-0.4-0.3-0.6-0.4-0.7s-0.3-0.2-0.5-0.2v2.7h-1.6V41.2z"/>
		<path d="M162.4,45.7h1.6v1.2c0,0.5,0,0.9-0.1,1.1s-0.2,0.5-0.5,0.7s-0.5,0.4-0.9,0.5l-0.3-0.7c0.3-0.1,0.6-0.3,0.7-0.5
			s0.2-0.5,0.2-0.8h-0.8V45.7z"/>
		<path d="M168.4,41.2h1.8l1.5,4.4l1.5-4.4h1.7l-2.2,6l-0.4,1.1c-0.1,0.4-0.3,0.6-0.4,0.8s-0.3,0.3-0.5,0.5s-0.4,0.2-0.6,0.3
			s-0.5,0.1-0.8,0.1c-0.3,0-0.6,0-0.9-0.1l-0.1-1.3c0.3,0.1,0.5,0.1,0.7,0.1c0.4,0,0.7-0.1,0.8-0.3s0.3-0.5,0.4-0.9L168.4,41.2z"/>
		<path d="M176.1,41.2h5.5v6.2H180v-4.9h-2.2v2.8c0,0.7-0.1,1.2-0.2,1.5s-0.3,0.5-0.5,0.6s-0.5,0.1-1,0.1c-0.3,0-0.6,0-1-0.1v-1.2
			c0,0,0.1,0,0.3,0c0.2,0,0.3,0,0.4,0c0.2,0,0.4-0.1,0.4-0.2s0.1-0.6,0.1-1.2V41.2z"/>
		<path d="M183.3,47.4v-1.6h1.6v1.6H183.3z"/>
		<path d="M190.6,38.8h5.9V46h0.8v3.3h-1.4v-1.9h-5.4v1.9H189V46h0.7c0.4-0.7,0.6-1.6,0.7-2.6s0.2-2.2,0.2-3.7V38.8z M192.3,40.2
			c0,2.6-0.2,4.5-0.7,5.7h3.3v-5.7H192.3z"/>
		<path d="M200.5,44.8v-1.1c0.3,0,0.5,0,0.6-0.1s0.3-0.1,0.4-0.3s0.2-0.3,0.2-0.5c0-0.2-0.1-0.4-0.2-0.5s-0.4-0.2-0.6-0.2
			c-0.2,0-0.4,0-0.6,0.1s-0.3,0.3-0.5,0.7l-1.4-0.3c0.1-0.5,0.4-1,0.9-1.2s1-0.4,1.6-0.4c0.8,0,1.3,0.2,1.7,0.5s0.6,0.8,0.6,1.3
			c0,0.3-0.1,0.6-0.3,0.8s-0.5,0.4-0.8,0.6c0.5,0.1,0.8,0.3,1,0.6s0.3,0.6,0.3,0.9c0,0.5-0.2,0.9-0.7,1.3s-1.1,0.5-2,0.5
			c-1.5,0-2.4-0.6-2.7-1.7l1.5-0.3c0.2,0.6,0.6,0.9,1.2,0.9c0.3,0,0.6-0.1,0.7-0.2s0.3-0.4,0.3-0.6c0-0.2-0.1-0.4-0.3-0.6
			s-0.4-0.2-0.8-0.2H200.5z"/>
		<path d="M208.2,45.4l1.6,0.3c-0.2,0.6-0.5,1.1-1,1.4s-1,0.5-1.7,0.5c-1.1,0-1.9-0.4-2.4-1.1c-0.4-0.6-0.6-1.3-0.6-2.1
			c0-1,0.3-1.8,0.8-2.4s1.2-0.9,2-0.9c0.9,0,1.7,0.3,2.2,0.9s0.8,1.5,0.8,2.8h-4.1c0,0.5,0.1,0.9,0.4,1.1s0.6,0.4,0.9,0.4
			c0.3,0,0.5-0.1,0.7-0.2S208.1,45.7,208.2,45.4z M208.3,43.7c0-0.5-0.1-0.8-0.4-1.1s-0.5-0.4-0.9-0.4c-0.4,0-0.7,0.1-0.9,0.4
			s-0.3,0.6-0.3,1.1H208.3z"/>
		<path d="M211.2,41.2h1.5v0.9c0.2-0.3,0.5-0.6,0.8-0.8s0.7-0.3,1.1-0.3c0.7,0,1.3,0.3,1.8,0.8s0.8,1.4,0.8,2.4c0,1-0.3,1.8-0.8,2.4
			s-1.1,0.9-1.8,0.9c-0.3,0-0.7-0.1-0.9-0.2s-0.6-0.4-0.9-0.7v3.1h-1.6V41.2z M212.9,44.2c0,0.7,0.1,1.2,0.4,1.5s0.6,0.5,1,0.5
			c0.4,0,0.7-0.2,1-0.5s0.4-0.8,0.4-1.5c0-0.7-0.1-1.1-0.4-1.5s-0.6-0.5-1-0.5c-0.4,0-0.7,0.2-1,0.5S212.9,43.6,212.9,44.2z"/>
		<path d="M221,47.4v-2.7c-0.2,0-0.4,0.1-0.4,0.1s-0.2,0.3-0.4,0.7l-0.8,1.8h-1.8l0.9-1.7c0.4-0.9,0.9-1.4,1.4-1.5
			c-0.4-0.1-0.6-0.5-0.8-1.1c-0.1-0.4-0.3-0.7-0.4-0.8s-0.4-0.1-0.8-0.1v-1.1c0.3,0,0.6,0,0.7,0c0.4,0,0.7,0.1,0.9,0.2
			s0.5,0.6,0.7,1.2c0.2,0.5,0.3,0.8,0.4,0.9s0.3,0.2,0.5,0.2v-2.5h1.6v2.5c0.2,0,0.4-0.1,0.5-0.2s0.2-0.5,0.4-0.9
			c0.2-0.6,0.5-1,0.7-1.2s0.6-0.2,1-0.2c0.1,0,0.3,0,0.7,0v1.1c-0.4,0-0.7,0-0.8,0.1s-0.3,0.3-0.4,0.8c-0.2,0.6-0.5,0.9-0.8,1.1
			c0.5,0.1,0.9,0.6,1.4,1.5l0.9,1.7h-1.8l-0.8-1.8c-0.1-0.3-0.3-0.5-0.4-0.7s-0.3-0.2-0.5-0.2v2.7H221z"/>
		<path d="M226.9,41.2h1.6v3.9l2.5-3.9h1.6v6.2h-1.6v-4l-2.6,4h-1.6V41.2z"/>
		<path d="M234.3,41.2h1.6v2.3h2.4v-2.3h1.7v6.2h-1.7v-2.6h-2.4v2.6h-1.6V41.2z"/>
		<path d="M247,43l-1.6,0.3c-0.1-0.3-0.2-0.6-0.4-0.7s-0.4-0.2-0.8-0.2c-0.4,0-0.7,0.1-1,0.4s-0.4,0.8-0.4,1.4
			c0,0.7,0.1,1.3,0.4,1.6s0.6,0.5,1,0.5c0.3,0,0.6-0.1,0.8-0.3s0.3-0.5,0.4-0.9l1.6,0.3c-0.2,0.7-0.5,1.3-1,1.7s-1.1,0.6-1.9,0.6
			c-0.9,0-1.6-0.3-2.2-0.9s-0.8-1.4-0.8-2.4c0-1,0.3-1.8,0.8-2.4s1.3-0.9,2.2-0.9c0.8,0,1.4,0.2,1.8,0.5S246.8,42.3,247,43z"/>
		<path d="M248.2,41.2h1.6v2.5c0.3,0,0.5-0.1,0.6-0.3s0.2-0.4,0.4-0.9c0.2-0.6,0.4-1,0.7-1.2s0.6-0.3,1-0.3c0.1,0,0.3,0,0.7,0l0,1.1
			c-0.4,0-0.7,0-0.8,0.1c-0.1,0.1-0.3,0.3-0.4,0.8c-0.2,0.6-0.5,0.9-0.8,1.1c0.5,0.1,1,0.6,1.3,1.4c0,0,0,0.1,0.1,0.1l0.9,1.7h-1.8
			l-0.8-1.8c-0.2-0.4-0.3-0.6-0.4-0.7s-0.3-0.2-0.5-0.2v2.7h-1.6V41.2z"/>
		<path d="M253.7,44.2c0-0.5,0.1-1.1,0.4-1.6s0.7-0.9,1.1-1.2s1-0.4,1.7-0.4c0.9,0,1.7,0.3,2.3,0.9s0.9,1.4,0.9,2.3
			c0,0.9-0.3,1.7-0.9,2.3s-1.4,0.9-2.3,0.9c-0.6,0-1.1-0.1-1.6-0.4s-0.9-0.6-1.2-1.1S253.7,44.9,253.7,44.2z M255.4,44.3
			c0,0.6,0.1,1.1,0.4,1.4s0.7,0.5,1.1,0.5s0.8-0.2,1.1-0.5s0.4-0.8,0.4-1.4c0-0.6-0.1-1.1-0.4-1.4s-0.7-0.5-1.1-0.5
			s-0.8,0.2-1.1,0.5S255.4,43.7,255.4,44.3z"/>
		<path d="M261.4,41.2h4.2v1.3H263v4.9h-1.6V41.2z"/>
		<path d="M265.9,44.2c0-0.5,0.1-1.1,0.4-1.6s0.7-0.9,1.1-1.2s1-0.4,1.7-0.4c0.9,0,1.7,0.3,2.3,0.9s0.9,1.4,0.9,2.3
			c0,0.9-0.3,1.7-0.9,2.3s-1.4,0.9-2.3,0.9c-0.6,0-1.1-0.1-1.6-0.4s-0.9-0.6-1.2-1.1S265.9,44.9,265.9,44.2z M267.6,44.3
			c0,0.6,0.1,1.1,0.4,1.4s0.7,0.5,1.1,0.5s0.8-0.2,1.1-0.5s0.4-0.8,0.4-1.4c0-0.6-0.1-1.1-0.4-1.4s-0.7-0.5-1.1-0.5
			s-0.8,0.2-1.1,0.5S267.6,43.7,267.6,44.3z"/>
		<path d="M282.1,47.4h-4.7V49H276v-3h0.7c0.3-0.3,0.5-0.8,0.7-1.5s0.3-1.8,0.3-3.4h5V46h0.7v3h-1.3V47.4z M281.1,46l0-3.5h-2
			c-0.1,1.7-0.3,2.9-0.8,3.5H281.1z"/>
		<path d="M284.5,47.4v-1.6h1.6v1.6H284.5z"/>
		<path d="M294.1,47.4v-1.7h-3.5v-1.4l3.7-5.5h1.4v5.4h1.1v1.4h-1.1v1.7H294.1z M294.1,44.2v-2.9l-2,2.9H294.1z"/>
		<path d="M300.3,38.8c0.8,0,1.5,0.3,2,0.9c0.6,0.7,0.8,1.9,0.8,3.5c0,1.6-0.3,2.8-0.8,3.5c-0.5,0.6-1.1,0.9-1.9,0.9
			c-0.8,0-1.5-0.3-2-1s-0.8-1.8-0.8-3.4c0-1.6,0.3-2.8,0.8-3.5C298.8,39.1,299.5,38.8,300.3,38.8z M300.3,40.1
			c-0.2,0-0.4,0.1-0.5,0.2s-0.3,0.4-0.4,0.7c-0.1,0.4-0.2,1.1-0.2,2.2s0.1,1.7,0.2,2.1s0.2,0.6,0.4,0.8s0.3,0.2,0.5,0.2
			s0.4-0.1,0.5-0.2s0.3-0.4,0.4-0.7c0.1-0.4,0.2-1.1,0.2-2.1s-0.1-1.7-0.2-2.1s-0.2-0.6-0.4-0.8S300.5,40.1,300.3,40.1z"/>
	</g>
	<g>
		<path d="M68.2,62H70v3.7c0.4,0,0.6-0.1,0.8-0.3s0.3-0.6,0.6-1.3c0.4-0.9,0.7-1.5,1.1-1.7c0.4-0.2,0.9-0.3,1.7-0.3c0,0,0.1,0,0.3,0
			v1.3l-0.2,0c-0.4,0-0.6,0-0.8,0.1s-0.3,0.2-0.4,0.4s-0.3,0.5-0.5,1.1c-0.1,0.3-0.2,0.5-0.3,0.7s-0.3,0.4-0.7,0.6
			c0.4,0.1,0.7,0.3,1,0.7s0.5,0.8,0.8,1.4l1.2,2.4h-2l-1-2.2c0,0,0-0.1-0.1-0.2c0,0-0.1-0.2-0.2-0.4c-0.2-0.4-0.4-0.7-0.5-0.8
			s-0.4-0.2-0.7-0.2v3.8h-1.7V62z"/>
		<path d="M75.1,67.3c0-0.5,0.1-1.1,0.4-1.6s0.7-0.9,1.1-1.2s1-0.4,1.7-0.4c0.9,0,1.7,0.3,2.3,0.9s0.9,1.4,0.9,2.3
			c0,0.9-0.3,1.7-0.9,2.3s-1.4,0.9-2.3,0.9c-0.6,0-1.1-0.1-1.6-0.4s-0.9-0.6-1.2-1.1S75.1,68.1,75.1,67.3z M76.8,67.4
			c0,0.6,0.1,1.1,0.4,1.4s0.7,0.5,1.1,0.5s0.8-0.2,1.1-0.5s0.4-0.8,0.4-1.4c0-0.6-0.1-1.1-0.4-1.4s-0.7-0.5-1.1-0.5
			s-0.8,0.2-1.1,0.5S76.8,66.8,76.8,67.4z"/>
		<path d="M87.8,70.5h-4.7v1.6h-1.3v-3h0.7c0.3-0.3,0.5-0.8,0.7-1.5s0.3-1.8,0.3-3.4h5v4.9h0.7v3h-1.3V70.5z M86.9,69.2l0-3.5h-2
			c-0.1,1.7-0.3,2.9-0.8,3.5H86.9z"/>
		<path d="M98.8,70.5h-4.7v1.6h-1.3v-3h0.7c0.3-0.3,0.5-0.8,0.7-1.5s0.3-1.8,0.3-3.4h5v4.9h0.7v3h-1.3V70.5z M97.8,69.2l0-3.5h-2
			c-0.1,1.7-0.3,2.9-0.8,3.5H97.8z"/>
		<path d="M101.7,64.3h5.5v6.2h-1.6v-4.9h-2.2v2.8c0,0.7-0.1,1.2-0.2,1.5s-0.3,0.5-0.5,0.6s-0.5,0.1-1,0.1c-0.3,0-0.6,0-1-0.1v-1.2
			c0,0,0.1,0,0.3,0c0.2,0,0.3,0,0.4,0c0.2,0,0.4-0.1,0.4-0.2s0.1-0.6,0.1-1.2V64.3z"/>
		<path d="M114.2,64.3v6.2h-1.6V68h-0.2c-0.4,0-0.6,0-0.8,0.1s-0.4,0.3-0.6,0.6l-0.1,0.1l-1.1,1.7H108l1.2-1.8
			c0.3-0.5,0.6-0.8,0.9-0.9c-0.5,0-0.8-0.2-1.1-0.5s-0.4-0.7-0.4-1.2c0-0.4,0.1-0.7,0.3-1s0.4-0.5,0.8-0.6s0.8-0.2,1.4-0.2H114.2z
			 M112.6,65.4h-1.2c-0.4,0-0.7,0.1-0.9,0.2s-0.3,0.3-0.3,0.6s0.1,0.5,0.3,0.6s0.5,0.2,1,0.2h1.1V65.4z"/>
		<path d="M119.2,64.3h1.5v0.9c0.2-0.3,0.5-0.6,0.8-0.8s0.7-0.3,1.1-0.3c0.7,0,1.3,0.3,1.8,0.8s0.8,1.4,0.8,2.4c0,1-0.3,1.8-0.8,2.4
			s-1.1,0.9-1.8,0.9c-0.3,0-0.7-0.1-0.9-0.2s-0.6-0.4-0.9-0.7v3.1h-1.6V64.3z M120.8,67.3c0,0.7,0.1,1.2,0.4,1.5s0.6,0.5,1,0.5
			c0.4,0,0.7-0.2,1-0.5s0.4-0.8,0.4-1.5c0-0.7-0.1-1.1-0.4-1.5s-0.6-0.5-1-0.5c-0.4,0-0.7,0.2-1,0.5S120.8,66.7,120.8,67.3z"/>
		<path d="M130.1,68.6l1.6,0.3c-0.2,0.6-0.5,1.1-1,1.4s-1,0.5-1.7,0.5c-1.1,0-1.9-0.4-2.4-1.1c-0.4-0.6-0.6-1.3-0.6-2.1
			c0-1,0.3-1.8,0.8-2.4s1.2-0.9,2-0.9c0.9,0,1.7,0.3,2.2,0.9s0.8,1.5,0.8,2.8h-4.1c0,0.5,0.1,0.9,0.4,1.1s0.6,0.4,0.9,0.4
			c0.3,0,0.5-0.1,0.7-0.2S130,68.9,130.1,68.6z M130.2,66.9c0-0.5-0.1-0.8-0.4-1.1s-0.5-0.4-0.9-0.4c-0.4,0-0.7,0.1-0.9,0.4
			s-0.3,0.6-0.3,1.1H130.2z"/>
		<path d="M133.1,64.3h4.2v1.3h-2.6v4.9h-1.6V64.3z"/>
		<path d="M138.2,64.3h1.6v3.9l2.5-3.9h1.6v6.2h-1.6v-4l-2.6,4h-1.6V64.3z"/>
		<path d="M151,66.2l-1.6,0.3c-0.1-0.3-0.2-0.6-0.4-0.7s-0.4-0.2-0.8-0.2c-0.4,0-0.7,0.1-1,0.4s-0.4,0.8-0.4,1.4
			c0,0.7,0.1,1.3,0.4,1.6s0.6,0.5,1,0.5c0.3,0,0.6-0.1,0.8-0.3s0.3-0.5,0.4-0.9l1.6,0.3c-0.2,0.7-0.5,1.3-1,1.7s-1.1,0.6-1.9,0.6
			c-0.9,0-1.6-0.3-2.2-0.9s-0.8-1.4-0.8-2.4c0-1,0.3-1.8,0.8-2.4s1.3-0.9,2.2-0.9c0.8,0,1.4,0.2,1.8,0.5S150.8,65.5,151,66.2z"/>
		<path d="M151.5,64.3h5.6v1.3h-2v4.9h-1.6v-4.9h-2V64.3z"/>
		<path d="M158.1,64.3h1.5v0.9c0.2-0.3,0.5-0.6,0.8-0.8s0.7-0.3,1.1-0.3c0.7,0,1.3,0.3,1.8,0.8s0.8,1.4,0.8,2.4c0,1-0.3,1.8-0.8,2.4
			s-1.1,0.9-1.8,0.9c-0.3,0-0.7-0.1-0.9-0.2s-0.6-0.4-0.9-0.7v3.1h-1.6V64.3z M159.7,67.3c0,0.7,0.1,1.2,0.4,1.5s0.6,0.5,1,0.5
			c0.4,0,0.7-0.2,1-0.5s0.4-0.8,0.4-1.5c0-0.7-0.1-1.1-0.4-1.5s-0.6-0.5-1-0.5c-0.4,0-0.7,0.2-1,0.5S159.7,66.7,159.7,67.3z"/>
		<path d="M166.7,66.2l-1.5-0.3c0.2-0.6,0.5-1,0.9-1.3s1-0.4,1.8-0.4c0.7,0,1.3,0.1,1.6,0.3s0.6,0.4,0.8,0.7s0.2,0.8,0.2,1.5l0,1.9
			c0,0.5,0,1,0.1,1.2s0.2,0.5,0.3,0.8h-1.6c0-0.1-0.1-0.3-0.2-0.5c0-0.1,0-0.2-0.1-0.2c-0.3,0.3-0.6,0.5-0.9,0.6s-0.7,0.2-1,0.2
			c-0.6,0-1.1-0.2-1.5-0.5s-0.6-0.8-0.6-1.3c0-0.4,0.1-0.7,0.3-0.9s0.4-0.5,0.7-0.6s0.7-0.3,1.3-0.4c0.8-0.1,1.3-0.3,1.6-0.4v-0.2
			c0-0.3-0.1-0.5-0.2-0.7s-0.5-0.2-0.9-0.2c-0.3,0-0.5,0.1-0.7,0.2S166.8,65.9,166.7,66.2z M168.9,67.6c-0.2,0.1-0.5,0.2-1,0.3
			s-0.8,0.2-0.9,0.3c-0.2,0.2-0.3,0.3-0.3,0.6c0,0.2,0.1,0.4,0.3,0.6s0.4,0.3,0.7,0.3c0.3,0,0.6-0.1,0.8-0.3
			c0.2-0.1,0.3-0.3,0.4-0.5c0-0.1,0.1-0.4,0.1-0.8V67.6z"/>
		<path d="M172.1,64.3h1.6v4.9h2.3v-4.9h1.6v4.9h0.7v3H177v-1.6h-5V64.3z"/>
		<path d="M179.5,64.3h1.6v3.9l2.5-3.9h1.6v6.2h-1.6v-4l-2.6,4h-1.6V64.3z"/>
		<path d="M186.9,64.3h1.6v3.9l2.5-3.9h1.6v6.2H191v-4l-2.6,4h-1.6V64.3z"/>
		<path d="M197.6,64.3h3.6c0.7,0,1.3,0.1,1.7,0.4s0.6,0.7,0.6,1.2c0,0.3-0.1,0.7-0.3,0.9s-0.5,0.4-0.8,0.5c0.4,0.1,0.8,0.3,1,0.6
			s0.3,0.6,0.3,0.9c0,0.5-0.2,0.9-0.5,1.2s-0.9,0.5-1.6,0.5h-3.9V64.3z M199.3,66.9h1.1c0.5,0,0.9-0.1,1.1-0.2s0.3-0.3,0.3-0.6
			c0-0.3-0.1-0.4-0.3-0.6s-0.6-0.2-1.1-0.2h-1.1V66.9z M199.3,69.5h1.3c0.5,0,0.8-0.1,1-0.2s0.3-0.3,0.3-0.6c0-0.3-0.1-0.5-0.4-0.6
			s-0.7-0.2-1.4-0.2h-0.8V69.5z"/>
		<path d="M208.8,64.3h5.5v6.2h-1.6v-4.9h-2.2v2.8c0,0.7-0.1,1.2-0.2,1.5s-0.3,0.5-0.5,0.6s-0.5,0.1-1,0.1c-0.3,0-0.6,0-1-0.1v-1.2
			c0,0,0.1,0,0.3,0c0.2,0,0.3,0,0.4,0c0.2,0,0.4-0.1,0.4-0.2s0.1-0.6,0.1-1.2V64.3z"/>
		<path d="M215.9,64.3h1.6v3.9l2.5-3.9h1.6v6.2H220v-4l-2.6,4h-1.6V64.3z"/>
		<path d="M223.1,64.3h1.7v1.5c0,0.3,0,0.6,0.1,0.8s0.2,0.3,0.4,0.4s0.4,0.2,0.7,0.2c0.3,0,0.6-0.1,1-0.2v-2.7h1.6v6.2H227v-2.5
			c-0.6,0.2-1.1,0.3-1.5,0.3c-0.5,0-1-0.1-1.4-0.3s-0.7-0.5-0.8-0.8s-0.2-0.8-0.2-1.4V64.3z"/>
		<path d="M230.2,64.3h1.6v2.3h2.4v-2.3h1.7v6.2h-1.7v-2.6h-2.4v2.6h-1.6V64.3z"/>
		<path d="M237.1,67.3c0-0.5,0.1-1.1,0.4-1.6s0.7-0.9,1.1-1.2s1-0.4,1.7-0.4c0.9,0,1.7,0.3,2.3,0.9s0.9,1.4,0.9,2.3
			c0,0.9-0.3,1.7-0.9,2.3s-1.4,0.9-2.3,0.9c-0.6,0-1.1-0.1-1.6-0.4s-0.9-0.6-1.2-1.1S237.1,68.1,237.1,67.3z M238.8,67.4
			c0,0.6,0.1,1.1,0.4,1.4s0.7,0.5,1.1,0.5s0.8-0.2,1.1-0.5s0.4-0.8,0.4-1.4c0-0.6-0.1-1.1-0.4-1.4s-0.7-0.5-1.1-0.5
			s-0.8,0.2-1.1,0.5S238.8,66.8,238.8,67.4z"/>
		<path d="M244.7,64.3h2l1.5,4.3l1.6-4.3h2v6.2h-1.4v-4.1l-1.5,4.1h-1.4l-1.4-4.1v4.1h-1.4V64.3z"/>
		<path d="M256.8,64.3h1.6v2.5c0.3,0,0.5-0.1,0.6-0.3s0.2-0.4,0.4-0.9c0.2-0.6,0.4-1,0.7-1.2s0.6-0.3,1-0.3c0.1,0,0.3,0,0.7,0l0,1.1
			c-0.4,0-0.7,0-0.8,0.1c-0.1,0.1-0.3,0.3-0.4,0.8c-0.2,0.6-0.5,0.9-0.8,1.1c0.5,0.1,1,0.6,1.3,1.4c0,0,0,0.1,0.1,0.1l0.9,1.7h-1.8
			l-0.8-1.8c-0.2-0.4-0.3-0.6-0.4-0.7s-0.3-0.2-0.5-0.2v2.7h-1.6V64.3z"/>
		<path d="M264.1,66.2l-1.5-0.3c0.2-0.6,0.5-1,0.9-1.3s1-0.4,1.8-0.4c0.7,0,1.3,0.1,1.6,0.3s0.6,0.4,0.8,0.7s0.2,0.8,0.2,1.5l0,1.9
			c0,0.5,0,1,0.1,1.2s0.2,0.5,0.3,0.8h-1.6c0-0.1-0.1-0.3-0.2-0.5c0-0.1,0-0.2-0.1-0.2c-0.3,0.3-0.6,0.5-0.9,0.6s-0.7,0.2-1,0.2
			c-0.6,0-1.1-0.2-1.5-0.5s-0.6-0.8-0.6-1.3c0-0.4,0.1-0.7,0.3-0.9s0.4-0.5,0.7-0.6s0.7-0.3,1.3-0.4c0.8-0.1,1.3-0.3,1.6-0.4v-0.2
			c0-0.3-0.1-0.5-0.2-0.7s-0.5-0.2-0.9-0.2c-0.3,0-0.5,0.1-0.7,0.2S264.2,65.9,264.1,66.2z M266.4,67.6c-0.2,0.1-0.5,0.2-1,0.3
			s-0.8,0.2-0.9,0.3c-0.2,0.2-0.3,0.3-0.3,0.6c0,0.2,0.1,0.4,0.3,0.6s0.4,0.3,0.7,0.3c0.3,0,0.6-0.1,0.8-0.3
			c0.2-0.1,0.3-0.3,0.4-0.5c0-0.1,0.1-0.4,0.1-0.8V67.6z"/>
		<path d="M274.3,61.8h1.1c0,0.5-0.2,0.9-0.4,1.1s-0.8,0.4-1.7,0.4c-0.1,0-0.2,0-0.3,0h-0.2c-0.5,0-0.9,0.1-1.3,0.2
			s-0.6,0.3-0.8,0.7s-0.3,0.9-0.3,1.6c0.2-0.5,0.6-0.8,0.9-1s0.8-0.3,1.4-0.3c0.8,0,1.5,0.3,2.1,1s0.8,1.4,0.8,2.2
			c0,0.9-0.3,1.6-0.9,2.2s-1.4,0.9-2.3,0.9c-0.7,0-1.2-0.2-1.7-0.5s-0.9-0.7-1.1-1.3s-0.3-1.5-0.3-2.7c0-1.5,0.3-2.6,0.8-3.2
			s1.5-1,2.9-1h0.8C274,62,274.2,61.9,274.3,61.8z M270.9,67.5c0,0.6,0.1,1,0.4,1.3s0.6,0.5,1,0.5c0.4,0,0.8-0.2,1.1-0.5
			s0.4-0.8,0.4-1.3c0-0.6-0.1-1-0.4-1.3s-0.6-0.5-1.1-0.5c-0.4,0-0.8,0.2-1,0.5S270.9,66.9,270.9,67.5z"/>
		<path d="M277,64.3h1.6v3.9l2.5-3.9h1.6v6.2h-1.6v-4l-2.6,4H277V64.3z"/>
		<path d="M284.3,64.3h1.6v2.3h2.4v-2.3h1.7v6.2h-1.7v-2.6H286v2.6h-1.6V64.3z"/>
		<path d="M295.2,68.6l1.6,0.3c-0.2,0.6-0.5,1.1-1,1.4s-1,0.5-1.7,0.5c-1.1,0-1.9-0.4-2.4-1.1c-0.4-0.6-0.6-1.3-0.6-2.1
			c0-1,0.3-1.8,0.8-2.4s1.2-0.9,2-0.9c0.9,0,1.7,0.3,2.2,0.9s0.8,1.5,0.8,2.8h-4.1c0,0.5,0.1,0.9,0.4,1.1s0.6,0.4,0.9,0.4
			c0.3,0,0.5-0.1,0.7-0.2S295.1,68.9,295.2,68.6z M295.3,66.9c0-0.5-0.1-0.8-0.4-1.1s-0.5-0.4-0.9-0.4c-0.4,0-0.7,0.1-0.9,0.4
			s-0.3,0.6-0.3,1.1H295.3z"/>
		<path d="M297.4,64.3h5.6v1.3h-2v4.9h-1.6v-4.9h-2V64.3z"/>
		<path d="M307.6,68.6l1.6,0.3c-0.2,0.6-0.5,1.1-1,1.4s-1,0.5-1.7,0.5c-1.1,0-1.9-0.4-2.4-1.1c-0.4-0.6-0.6-1.3-0.6-2.1
			c0-1,0.3-1.8,0.8-2.4s1.2-0.9,2-0.9c0.9,0,1.7,0.3,2.2,0.9s0.8,1.5,0.8,2.8h-4.1c0,0.5,0.1,0.9,0.4,1.1s0.6,0.4,0.9,0.4
			c0.3,0,0.5-0.1,0.7-0.2S307.5,68.9,307.6,68.6z M307.7,66.9c0-0.5-0.1-0.8-0.4-1.1s-0.5-0.4-0.9-0.4c-0.4,0-0.7,0.1-0.9,0.4
			s-0.3,0.6-0.3,1.1H307.7z"/>
		<path d="M109.7,84.9v-8.6h1.6v8.6H109.7z"/>
		<path d="M113,84.9v-8.6h1.6v4.6l1.9-2.2h2l-2.1,2.3l2.3,3.9H117l-1.6-2.8l-0.8,0.8v2H113z"/>
		<path d="M119.7,84.9v-1.6h1.6v1.6H119.7z"/>
		<path d="M122.9,85.4l1.9,0.2c0,0.2,0.1,0.4,0.2,0.5c0.2,0.1,0.4,0.2,0.7,0.2c0.4,0,0.8-0.1,1-0.2c0.1-0.1,0.3-0.2,0.3-0.4
			c0.1-0.1,0.1-0.4,0.1-0.8v-0.9c-0.5,0.7-1.1,1-1.9,1c-0.8,0-1.5-0.4-2-1.1c-0.4-0.6-0.6-1.3-0.6-2.1c0-1,0.3-1.8,0.8-2.4
			s1.1-0.8,1.9-0.8c0.8,0,1.4,0.3,1.9,1v-0.9h1.5v5.6c0,0.7-0.1,1.3-0.2,1.6s-0.3,0.6-0.5,0.9s-0.5,0.4-0.9,0.5s-0.8,0.2-1.4,0.2
			c-1.1,0-1.8-0.2-2.2-0.5s-0.7-0.8-0.7-1.4C122.9,85.5,122.9,85.4,122.9,85.4z M124.4,81.7c0,0.7,0.1,1.1,0.4,1.5s0.6,0.5,0.9,0.5
			c0.4,0,0.7-0.2,1-0.5s0.4-0.8,0.4-1.4c0-0.6-0.1-1.1-0.4-1.4s-0.6-0.5-1-0.5c-0.4,0-0.7,0.2-1,0.5S124.4,81.1,124.4,81.7z"/>
		<path d="M132,84.9h-1.6v-6.2h1.5v0.9c0.3-0.4,0.5-0.7,0.7-0.8s0.4-0.2,0.7-0.2c0.4,0,0.7,0.1,1.1,0.3l-0.5,1.4
			c-0.3-0.2-0.5-0.3-0.8-0.3c-0.2,0-0.4,0.1-0.6,0.2s-0.3,0.4-0.4,0.7S132,82,132,83V84.9z"/>
		<path d="M135.1,77.9v-1.5h1.6v1.5H135.1z M135.1,84.9v-6.2h1.6v6.2H135.1z"/>
		<path d="M144.1,84.9h-1.6v-3.2c0-0.7,0-1.1-0.1-1.3s-0.2-0.4-0.3-0.5s-0.3-0.2-0.6-0.2c-0.3,0-0.5,0.1-0.8,0.2s-0.4,0.4-0.5,0.6
			s-0.1,0.7-0.1,1.4v2.8h-1.6v-6.2h1.5v0.9c0.5-0.7,1.2-1.1,2.1-1.1c0.4,0,0.7,0.1,1,0.2s0.5,0.3,0.7,0.5s0.3,0.4,0.3,0.7
			s0.1,0.6,0.1,1.1V84.9z"/>
		<path d="M151.4,84.9h-1.6v-3.2c0-0.7,0-1.1-0.1-1.3s-0.2-0.4-0.3-0.5s-0.3-0.2-0.6-0.2c-0.3,0-0.5,0.1-0.8,0.2s-0.4,0.4-0.5,0.6
			s-0.1,0.7-0.1,1.4v2.8h-1.6v-6.2h1.5v0.9c0.5-0.7,1.2-1.1,2.1-1.1c0.4,0,0.7,0.1,1,0.2s0.5,0.3,0.7,0.5s0.3,0.4,0.3,0.7
			s0.1,0.6,0.1,1.1V84.9z"/>
		<path d="M152.9,82.7V81h3.2v1.6H152.9z"/>
		<path d="M162.5,80.6l-1.6,0.3c-0.1-0.3-0.2-0.6-0.4-0.7s-0.4-0.2-0.8-0.2c-0.4,0-0.7,0.1-1,0.4s-0.4,0.8-0.4,1.4
			c0,0.7,0.1,1.3,0.4,1.6s0.6,0.5,1,0.5c0.3,0,0.6-0.1,0.8-0.3s0.3-0.5,0.4-0.9l1.6,0.3c-0.2,0.7-0.5,1.3-1,1.7s-1.1,0.6-1.9,0.6
			c-0.9,0-1.6-0.3-2.2-0.9s-0.8-1.4-0.8-2.4c0-1,0.3-1.8,0.8-2.4s1.3-0.9,2.2-0.9c0.8,0,1.4,0.2,1.8,0.5S162.3,79.9,162.5,80.6z"/>
		<path d="M163.4,81.7c0-0.5,0.1-1.1,0.4-1.6s0.7-0.9,1.1-1.2s1-0.4,1.7-0.4c0.9,0,1.7,0.3,2.3,0.9s0.9,1.4,0.9,2.3
			c0,0.9-0.3,1.7-0.9,2.3s-1.4,0.9-2.3,0.9c-0.6,0-1.1-0.1-1.6-0.4s-0.9-0.6-1.2-1.1S163.4,82.5,163.4,81.7z M165,81.8
			c0,0.6,0.1,1.1,0.4,1.4s0.7,0.5,1.1,0.5s0.8-0.2,1.1-0.5s0.4-0.8,0.4-1.4c0-0.6-0.1-1.1-0.4-1.4s-0.7-0.5-1.1-0.5
			s-0.8,0.2-1.1,0.5S165,81.2,165,81.8z"/>
		<path d="M172.6,84.9H171v-6.2h1.5v0.9c0.3-0.4,0.5-0.7,0.7-0.8s0.4-0.2,0.7-0.2c0.4,0,0.7,0.1,1.1,0.3l-0.5,1.4
			c-0.3-0.2-0.5-0.3-0.8-0.3c-0.2,0-0.4,0.1-0.6,0.2s-0.3,0.4-0.4,0.7s-0.1,1-0.1,2.1V84.9z"/>
		<path d="M175.7,78.7h1.5v0.9c0.2-0.3,0.5-0.6,0.8-0.8s0.7-0.3,1.1-0.3c0.7,0,1.3,0.3,1.8,0.8s0.8,1.4,0.8,2.4c0,1-0.3,1.8-0.8,2.4
			s-1.1,0.9-1.8,0.9c-0.3,0-0.7-0.1-0.9-0.2s-0.6-0.4-0.9-0.7v3.1h-1.6V78.7z M177.3,81.7c0,0.7,0.1,1.2,0.4,1.5s0.6,0.5,1,0.5
			c0.4,0,0.7-0.2,1-0.5s0.4-0.8,0.4-1.5c0-0.7-0.1-1.1-0.4-1.5s-0.6-0.5-1-0.5c-0.4,0-0.7,0.2-1,0.5S177.3,81.1,177.3,81.7z"/>
		<path d="M183.1,84.9v-1.6h1.6v1.6H183.1z"/>
		<path d="M188,84.9h-1.6v-6.2h1.5v0.9c0.3-0.4,0.5-0.7,0.7-0.8s0.4-0.2,0.7-0.2c0.4,0,0.7,0.1,1.1,0.3l-0.5,1.4
			c-0.3-0.2-0.5-0.3-0.8-0.3c-0.2,0-0.4,0.1-0.6,0.2s-0.3,0.4-0.4,0.7S188,82,188,83V84.9z"/>
		<path d="M195.2,84.9V84c-0.2,0.3-0.5,0.6-0.9,0.8s-0.8,0.3-1.2,0.3c-0.4,0-0.8-0.1-1.1-0.3s-0.6-0.4-0.7-0.8s-0.2-0.8-0.2-1.4
			v-3.9h1.6v2.9c0,0.9,0,1.4,0.1,1.6s0.2,0.4,0.3,0.5s0.4,0.2,0.6,0.2c0.3,0,0.5-0.1,0.8-0.2s0.4-0.3,0.5-0.6s0.1-0.8,0.1-1.7v-2.6
			h1.6v6.2H195.2z"/>
		<path d="M198.7,80.4v-1.6h1.6v1.6H198.7z M198.7,84.9v-1.6h1.6v1.6H198.7z"/>
		<path d="M202,78v-1.5h5.6v1.2c-0.5,0.5-0.9,1.1-1.4,2s-0.8,1.8-1.1,2.7s-0.4,1.8-0.4,2.6h-1.6c0-1.2,0.3-2.4,0.7-3.6
			s1.1-2.3,1.9-3.3H202z"/>
		<path d="M208.7,82.7l1.6-0.2c0.1,0.4,0.2,0.7,0.4,0.9s0.5,0.3,0.8,0.3c0.3,0,0.6-0.1,0.9-0.4s0.3-0.6,0.3-1c0-0.4-0.1-0.7-0.3-1
			s-0.5-0.4-0.8-0.4c-0.2,0-0.5,0-0.8,0.1l0.2-1.3c0.4,0,0.8-0.1,1-0.3s0.4-0.5,0.4-0.8c0-0.3-0.1-0.5-0.3-0.7s-0.4-0.3-0.7-0.3
			c-0.3,0-0.5,0.1-0.7,0.3s-0.3,0.5-0.4,0.9l-1.5-0.3c0.1-0.5,0.3-0.9,0.5-1.2s0.5-0.6,0.9-0.7s0.8-0.3,1.3-0.3
			c0.8,0,1.5,0.3,1.9,0.8c0.4,0.4,0.6,0.9,0.6,1.4c0,0.8-0.4,1.4-1.2,1.8c0.5,0.1,0.9,0.3,1.2,0.7s0.4,0.8,0.4,1.3
			c0,0.8-0.3,1.4-0.8,1.9s-1.2,0.8-2.1,0.8c-0.8,0-1.4-0.2-1.9-0.7S208.7,83.4,208.7,82.7z"/>
		<path d="M215.4,82.7l1.6-0.2c0,0.4,0.2,0.7,0.4,0.9s0.5,0.3,0.8,0.3c0.3,0,0.6-0.1,0.9-0.4s0.4-0.7,0.4-1.3c0-0.5-0.1-0.9-0.4-1.2
			s-0.5-0.4-0.9-0.4c-0.5,0-0.9,0.2-1.3,0.6l-1.3-0.2l0.8-4.5h4.4V78h-3.1l-0.3,1.5c0.4-0.2,0.7-0.3,1.1-0.3c0.7,0,1.3,0.3,1.9,0.8
			s0.8,1.2,0.8,2.1c0,0.7-0.2,1.3-0.6,1.9c-0.6,0.8-1.3,1.1-2.3,1.1c-0.8,0-1.4-0.2-1.9-0.6S215.5,83.5,215.4,82.7z"/>
		<path d="M223.5,80.3c-0.4-0.2-0.7-0.4-0.9-0.7s-0.3-0.7-0.3-1c0-0.6,0.2-1.2,0.7-1.6s1.1-0.6,1.9-0.6c0.8,0,1.5,0.2,1.9,0.6
			s0.7,0.9,0.7,1.6c0,0.4-0.1,0.8-0.3,1.1s-0.5,0.5-0.9,0.7c0.5,0.2,0.8,0.5,1.1,0.8s0.4,0.8,0.4,1.3c0,0.8-0.3,1.4-0.8,1.9
			s-1.2,0.7-2,0.7c-0.8,0-1.4-0.2-2-0.6c-0.6-0.5-0.9-1.1-0.9-2c0-0.5,0.1-0.9,0.3-1.3S223,80.5,223.5,80.3z M223.7,82.3
			c0,0.5,0.1,0.8,0.3,1.1s0.5,0.4,0.9,0.4c0.3,0,0.6-0.1,0.8-0.4s0.3-0.6,0.3-1.1c0-0.4-0.1-0.7-0.3-1s-0.5-0.4-0.9-0.4
			c-0.4,0-0.7,0.1-0.9,0.4S223.7,82,223.7,82.3z M223.8,78.7c0,0.3,0.1,0.6,0.3,0.8s0.4,0.3,0.7,0.3c0.3,0,0.6-0.1,0.8-0.3
			s0.3-0.4,0.3-0.8c0-0.3-0.1-0.6-0.3-0.7s-0.4-0.3-0.7-0.3c-0.3,0-0.6,0.1-0.8,0.3S223.8,78.3,223.8,78.7z"/>
		<path d="M234.3,78.5l-1.6,0.2c0-0.3-0.1-0.6-0.3-0.7s-0.4-0.2-0.6-0.2c-0.3,0-0.6,0.2-0.9,0.5s-0.4,1-0.5,2
			c0.4-0.5,0.9-0.7,1.5-0.7c0.7,0,1.3,0.3,1.8,0.8s0.7,1.2,0.7,2c0,0.9-0.3,1.6-0.8,2.1s-1.2,0.8-2,0.8c-0.9,0-1.6-0.3-2.1-1
			s-0.8-1.8-0.8-3.3c0-1.6,0.3-2.7,0.9-3.4s1.3-1,2.3-1c0.7,0,1.2,0.2,1.6,0.5S234.2,77.8,234.3,78.5z M230.6,82
			c0,0.5,0.1,0.9,0.4,1.2s0.5,0.4,0.8,0.4c0.3,0,0.6-0.1,0.8-0.4s0.3-0.6,0.3-1.2c0-0.6-0.1-1-0.3-1.2s-0.5-0.4-0.8-0.4
			c-0.3,0-0.6,0.1-0.8,0.4S230.6,81.6,230.6,82z"/>
		<path d="M239.6,84.9H238v-6.2c-0.6,0.6-1.3,1-2.1,1.2v-1.5c0.4-0.1,0.9-0.4,1.4-0.8s0.8-0.9,1-1.4h1.3V84.9z"/>
		<path d="M247.7,78.5l-1.6,0.2c0-0.3-0.1-0.6-0.3-0.7s-0.4-0.2-0.6-0.2c-0.3,0-0.6,0.2-0.9,0.5s-0.4,1-0.5,2
			c0.4-0.5,0.9-0.7,1.5-0.7c0.7,0,1.3,0.3,1.8,0.8s0.7,1.2,0.7,2c0,0.9-0.3,1.6-0.8,2.1s-1.2,0.8-2,0.8c-0.9,0-1.6-0.3-2.1-1
			s-0.8-1.8-0.8-3.3c0-1.6,0.3-2.7,0.9-3.4s1.3-1,2.3-1c0.7,0,1.2,0.2,1.6,0.5S247.6,77.8,247.7,78.5z M243.9,82
			c0,0.5,0.1,0.9,0.4,1.2s0.5,0.4,0.8,0.4c0.3,0,0.6-0.1,0.8-0.4s0.3-0.6,0.3-1.2c0-0.6-0.1-1-0.3-1.2s-0.5-0.4-0.8-0.4
			c-0.3,0-0.6,0.1-0.8,0.4S243.9,81.6,243.9,82z"/>
		<path d="M254.3,83.4v1.5h-5.8c0.1-0.6,0.2-1.1,0.6-1.6s0.9-1.2,1.9-2.1c0.7-0.7,1.2-1.2,1.4-1.4c0.2-0.3,0.3-0.7,0.3-1
			c0-0.4-0.1-0.6-0.3-0.8s-0.5-0.3-0.8-0.3c-0.3,0-0.6,0.1-0.8,0.3s-0.3,0.6-0.4,1l-1.6-0.2c0.1-0.9,0.4-1.6,0.9-2s1.2-0.6,1.9-0.6
			c0.8,0,1.5,0.2,2,0.7s0.7,1,0.7,1.7c0,0.4-0.1,0.8-0.2,1.1s-0.4,0.7-0.7,1.1c-0.2,0.3-0.6,0.6-1.1,1.1s-0.8,0.8-1,0.9
			s-0.3,0.3-0.3,0.5H254.3z"/>
		<path d="M255.5,82.7l1.6-0.2c0,0.4,0.2,0.7,0.4,0.9s0.5,0.3,0.8,0.3c0.3,0,0.6-0.1,0.9-0.4s0.4-0.7,0.4-1.3c0-0.5-0.1-0.9-0.4-1.2
			s-0.5-0.4-0.9-0.4c-0.5,0-0.9,0.2-1.3,0.6l-1.3-0.2l0.8-4.5h4.4V78h-3.1l-0.3,1.5c0.4-0.2,0.7-0.3,1.1-0.3c0.7,0,1.3,0.3,1.9,0.8
			s0.8,1.2,0.8,2.1c0,0.7-0.2,1.3-0.6,1.9c-0.6,0.8-1.3,1.1-2.3,1.1c-0.8,0-1.4-0.2-1.9-0.6S255.6,83.5,255.5,82.7z"/>
		<path d="M262.1,78v-1.5h5.6v1.2c-0.5,0.5-0.9,1.1-1.4,2s-0.8,1.8-1.1,2.7s-0.4,1.8-0.4,2.6h-1.6c0-1.2,0.3-2.4,0.7-3.6
			s1.1-2.3,1.9-3.3H262.1z"/>
	</g>
	<g>
		<path d="M58,105.6l1.7,0.5c-0.3,0.9-0.7,1.6-1.3,2.1s-1.4,0.7-2.3,0.7c-1.1,0-2.1-0.4-2.8-1.2s-1.1-1.8-1.1-3.2
			c0-1.4,0.4-2.5,1.1-3.3s1.7-1.2,2.9-1.2c1.1,0,1.9,0.3,2.6,0.9c0.4,0.4,0.7,0.9,0.9,1.6L58,103c-0.1-0.4-0.3-0.8-0.6-1.1
			s-0.7-0.4-1.2-0.4c-0.6,0-1.2,0.2-1.5,0.7s-0.6,1.2-0.6,2.2c0,1.1,0.2,1.9,0.6,2.3s0.9,0.7,1.5,0.7c0.5,0,0.9-0.1,1.2-0.4
			S57.9,106.3,58,105.6z"/>
		<path d="M61.1,102.6h1.6v2.5c0.3,0,0.5-0.1,0.6-0.3s0.2-0.4,0.4-0.9c0.2-0.6,0.4-1,0.7-1.2s0.6-0.3,1-0.3c0.1,0,0.3,0,0.7,0l0,1.1
			c-0.4,0-0.7,0-0.8,0.1c-0.1,0.1-0.3,0.3-0.4,0.8c-0.2,0.6-0.5,0.9-0.8,1.1c0.5,0.1,1,0.6,1.3,1.4c0,0,0,0.1,0.1,0.1l0.9,1.7h-1.8
			l-0.8-1.8c-0.2-0.4-0.3-0.6-0.4-0.7s-0.3-0.2-0.5-0.2v2.7h-1.6V102.6z"/>
		<path d="M67.1,102.6h1.6v3.9l2.5-3.9h1.6v6.2h-1.6v-4l-2.6,4h-1.6V102.6z"/>
		<path d="M79.7,108.8H75v1.6h-1.3v-3h0.7c0.3-0.3,0.5-0.8,0.7-1.5s0.3-1.8,0.3-3.4h5v4.9H81v3h-1.3V108.8z M78.7,107.4l0-3.5h-2
			c-0.1,1.7-0.3,2.9-0.8,3.5H78.7z"/>
		<path d="M82.1,102.6h1.6v2.5c0.3,0,0.5-0.1,0.6-0.3s0.2-0.4,0.4-0.9c0.2-0.6,0.4-1,0.7-1.2s0.6-0.3,1-0.3c0.1,0,0.3,0,0.7,0l0,1.1
			c-0.4,0-0.7,0-0.8,0.1c-0.1,0.1-0.3,0.3-0.4,0.8c-0.2,0.6-0.5,0.9-0.8,1.1c0.5,0.1,1,0.6,1.3,1.4c0,0,0,0.1,0.1,0.1l0.9,1.7h-1.8
			l-0.8-1.8c-0.2-0.4-0.3-0.6-0.4-0.7s-0.3-0.2-0.5-0.2v2.7h-1.6V102.6z"/>
		<path d="M89.4,104.5l-1.5-0.3c0.2-0.6,0.5-1,0.9-1.3s1-0.4,1.8-0.4c0.7,0,1.3,0.1,1.6,0.3s0.6,0.4,0.8,0.7s0.2,0.8,0.2,1.5l0,1.9
			c0,0.5,0,1,0.1,1.2s0.2,0.5,0.3,0.8H92c0-0.1-0.1-0.3-0.2-0.5c0-0.1,0-0.2-0.1-0.2c-0.3,0.3-0.6,0.5-0.9,0.6s-0.7,0.2-1,0.2
			c-0.6,0-1.1-0.2-1.5-0.5s-0.6-0.8-0.6-1.3c0-0.4,0.1-0.7,0.3-0.9s0.4-0.5,0.7-0.6s0.7-0.3,1.3-0.4c0.8-0.1,1.3-0.3,1.6-0.4v-0.2
			c0-0.3-0.1-0.5-0.2-0.7s-0.5-0.2-0.9-0.2c-0.3,0-0.5,0.1-0.7,0.2S89.5,104.2,89.4,104.5z M91.6,105.8c-0.2,0.1-0.5,0.2-1,0.3
			s-0.8,0.2-0.9,0.3c-0.2,0.2-0.3,0.3-0.3,0.6c0,0.2,0.1,0.4,0.3,0.6s0.4,0.3,0.7,0.3c0.3,0,0.6-0.1,0.8-0.3
			c0.2-0.1,0.3-0.3,0.4-0.5c0-0.1,0.1-0.4,0.1-0.8V105.8z"/>
		<path d="M98.1,102.6h5.5v6.2H102v-4.9h-2.2v4.9h-1.6V102.6z"/>
		<path d="M105,105.6c0-0.5,0.1-1.1,0.4-1.6s0.7-0.9,1.1-1.2s1-0.4,1.7-0.4c0.9,0,1.7,0.3,2.3,0.9s0.9,1.4,0.9,2.3
			c0,0.9-0.3,1.7-0.9,2.3s-1.4,0.9-2.3,0.9c-0.6,0-1.1-0.1-1.6-0.4s-0.9-0.6-1.2-1.1S105,106.3,105,105.6z M106.7,105.7
			c0,0.6,0.1,1.1,0.4,1.4s0.7,0.5,1.1,0.5s0.8-0.2,1.1-0.5s0.4-0.8,0.4-1.4c0-0.6-0.1-1.1-0.4-1.4s-0.7-0.5-1.1-0.5
			s-0.8,0.2-1.1,0.5S106.7,105.1,106.7,105.7z"/>
		<path d="M117.3,104.5l-1.5-0.3c0.2-0.6,0.5-1,0.9-1.3s1-0.4,1.8-0.4c0.7,0,1.3,0.1,1.6,0.3s0.6,0.4,0.8,0.7s0.2,0.8,0.2,1.5l0,1.9
			c0,0.5,0,1,0.1,1.2s0.2,0.5,0.3,0.8h-1.6c0-0.1-0.1-0.3-0.2-0.5c0-0.1,0-0.2-0.1-0.2c-0.3,0.3-0.6,0.5-0.9,0.6s-0.7,0.2-1,0.2
			c-0.6,0-1.1-0.2-1.5-0.5s-0.6-0.8-0.6-1.3c0-0.4,0.1-0.7,0.3-0.9s0.4-0.5,0.7-0.6s0.7-0.3,1.3-0.4c0.8-0.1,1.3-0.3,1.6-0.4v-0.2
			c0-0.3-0.1-0.5-0.2-0.7s-0.5-0.2-0.9-0.2c-0.3,0-0.5,0.1-0.7,0.2S117.4,104.2,117.3,104.5z M119.5,105.8c-0.2,0.1-0.5,0.2-1,0.3
			s-0.8,0.2-0.9,0.3c-0.2,0.2-0.3,0.3-0.3,0.6c0,0.2,0.1,0.4,0.3,0.6s0.4,0.3,0.7,0.3c0.3,0,0.6-0.1,0.8-0.3
			c0.2-0.1,0.3-0.3,0.4-0.5c0-0.1,0.1-0.4,0.1-0.8V105.8z"/>
		<path d="M122.7,102.6h1.6v2.5c0.3,0,0.5-0.1,0.6-0.3s0.2-0.4,0.4-0.9c0.2-0.6,0.4-1,0.7-1.2s0.6-0.3,1-0.3c0.1,0,0.3,0,0.7,0
			l0,1.1c-0.4,0-0.7,0-0.8,0.1c-0.1,0.1-0.3,0.3-0.4,0.8c-0.2,0.6-0.5,0.9-0.8,1.1c0.5,0.1,1,0.6,1.3,1.4c0,0,0,0.1,0.1,0.1l0.9,1.7
			h-1.8l-0.8-1.8c-0.2-0.4-0.3-0.6-0.4-0.7s-0.3-0.2-0.5-0.2v2.7h-1.6V102.6z"/>
		<path d="M128.7,102.6h1.6v4.9h2.3v-4.9h1.6v4.9h0.7v3h-1.3v-1.6h-5V102.6z"/>
		<path d="M136.2,108.8v-1.6h1.6v1.6H136.2z"/>
		<path d="M142.1,102.6h5.6v1.3h-2v4.9h-1.6v-4.9h-2V102.6z"/>
		<path d="M148.2,105.6c0-0.5,0.1-1.1,0.4-1.6s0.7-0.9,1.1-1.2s1-0.4,1.7-0.4c0.9,0,1.7,0.3,2.3,0.9s0.9,1.4,0.9,2.3
			c0,0.9-0.3,1.7-0.9,2.3s-1.4,0.9-2.3,0.9c-0.6,0-1.1-0.1-1.6-0.4s-0.9-0.6-1.2-1.1S148.2,106.3,148.2,105.6z M149.8,105.7
			c0,0.6,0.1,1.1,0.4,1.4s0.7,0.5,1.1,0.5s0.8-0.2,1.1-0.5s0.4-0.8,0.4-1.4c0-0.6-0.1-1.1-0.4-1.4s-0.7-0.5-1.1-0.5
			s-0.8,0.2-1.1,0.5S149.8,105.1,149.8,105.7z"/>
		<path d="M155.9,102.6h3.6c0.7,0,1.3,0.1,1.7,0.4s0.6,0.7,0.6,1.2c0,0.3-0.1,0.7-0.3,0.9s-0.5,0.4-0.8,0.5c0.4,0.1,0.8,0.3,1,0.6
			s0.3,0.6,0.3,0.9c0,0.5-0.2,0.9-0.5,1.2s-0.9,0.5-1.6,0.5h-3.9V102.6z M157.5,105.2h1.1c0.5,0,0.9-0.1,1.1-0.2s0.3-0.3,0.3-0.6
			c0-0.3-0.1-0.4-0.3-0.6s-0.6-0.2-1.1-0.2h-1.1V105.2z M157.5,107.7h1.3c0.5,0,0.8-0.1,1-0.2s0.3-0.3,0.3-0.6
			c0-0.3-0.1-0.5-0.4-0.6s-0.7-0.2-1.4-0.2h-0.8V107.7z"/>
		<path d="M164.3,104.5l-1.5-0.3c0.2-0.6,0.5-1,0.9-1.3s1-0.4,1.8-0.4c0.7,0,1.3,0.1,1.6,0.3s0.6,0.4,0.8,0.7s0.2,0.8,0.2,1.5l0,1.9
			c0,0.5,0,1,0.1,1.2s0.2,0.5,0.3,0.8h-1.6c0-0.1-0.1-0.3-0.2-0.5c0-0.1,0-0.2-0.1-0.2c-0.3,0.3-0.6,0.5-0.9,0.6s-0.7,0.2-1,0.2
			c-0.6,0-1.1-0.2-1.5-0.5s-0.6-0.8-0.6-1.3c0-0.4,0.1-0.7,0.3-0.9s0.4-0.5,0.7-0.6s0.7-0.3,1.3-0.4c0.8-0.1,1.3-0.3,1.6-0.4v-0.2
			c0-0.3-0.1-0.5-0.2-0.7s-0.5-0.2-0.9-0.2c-0.3,0-0.5,0.1-0.7,0.2S164.4,104.2,164.3,104.5z M166.5,105.8c-0.2,0.1-0.5,0.2-1,0.3
			s-0.8,0.2-0.9,0.3c-0.2,0.2-0.3,0.3-0.3,0.6c0,0.2,0.1,0.4,0.3,0.6s0.4,0.3,0.7,0.3c0.3,0,0.6-0.1,0.8-0.3
			c0.2-0.1,0.3-0.3,0.4-0.5c0-0.1,0.1-0.4,0.1-0.8V105.8z"/>
		<path d="M169.7,102.6h1.5v0.9c0.2-0.3,0.5-0.6,0.8-0.8s0.7-0.3,1.1-0.3c0.7,0,1.3,0.3,1.8,0.8s0.8,1.4,0.8,2.4
			c0,1-0.3,1.8-0.8,2.4s-1.1,0.9-1.8,0.9c-0.3,0-0.7-0.1-0.9-0.2s-0.6-0.4-0.9-0.7v3.1h-1.6V102.6z M171.3,105.6
			c0,0.7,0.1,1.2,0.4,1.5s0.6,0.5,1,0.5c0.4,0,0.7-0.2,1-0.5s0.4-0.8,0.4-1.5c0-0.7-0.1-1.1-0.4-1.5s-0.6-0.5-1-0.5
			c-0.4,0-0.7,0.2-1,0.5S171.3,105,171.3,105.6z"/>
		<path d="M178.3,104.5l-1.5-0.3c0.2-0.6,0.5-1,0.9-1.3s1-0.4,1.8-0.4c0.7,0,1.3,0.1,1.6,0.3s0.6,0.4,0.8,0.7s0.2,0.8,0.2,1.5l0,1.9
			c0,0.5,0,1,0.1,1.2s0.2,0.5,0.3,0.8h-1.6c0-0.1-0.1-0.3-0.2-0.5c0-0.1,0-0.2-0.1-0.2c-0.3,0.3-0.6,0.5-0.9,0.6s-0.7,0.2-1,0.2
			c-0.6,0-1.1-0.2-1.5-0.5s-0.6-0.8-0.6-1.3c0-0.4,0.1-0.7,0.3-0.9s0.4-0.5,0.7-0.6s0.7-0.3,1.3-0.4c0.8-0.1,1.3-0.3,1.6-0.4v-0.2
			c0-0.3-0.1-0.5-0.2-0.7s-0.5-0.2-0.9-0.2c-0.3,0-0.5,0.1-0.7,0.2S178.4,104.2,178.3,104.5z M180.5,105.8c-0.2,0.1-0.5,0.2-1,0.3
			s-0.8,0.2-0.9,0.3c-0.2,0.2-0.3,0.3-0.3,0.6c0,0.2,0.1,0.4,0.3,0.6s0.4,0.3,0.7,0.3c0.3,0,0.6-0.1,0.8-0.3
			c0.2-0.1,0.3-0.3,0.4-0.5c0-0.1,0.1-0.4,0.1-0.8V105.8z"/>
		<path d="M183.8,102.6h2l1.5,4.3l1.6-4.3h2v6.2h-1.4v-4.1l-1.5,4.1h-1.4l-1.4-4.1v4.1h-1.4V102.6z"/>
		<path d="M193,104.2v-1.6h1.6v1.6H193z M193,108.8v-1.6h1.6v1.6H193z"/>
		<path d="M52.5,114.6h6.8v8.6h-1.7V116h-3.4v7.1h-1.7V114.6z"/>
		<path d="M61.1,117h1.5v0.9c0.2-0.3,0.5-0.6,0.8-0.8s0.7-0.3,1.1-0.3c0.7,0,1.3,0.3,1.8,0.8s0.8,1.4,0.8,2.4c0,1-0.3,1.8-0.8,2.4
			s-1.1,0.9-1.8,0.9c-0.3,0-0.7-0.1-0.9-0.2s-0.6-0.4-0.9-0.7v3.1h-1.6V117z M62.7,120c0,0.7,0.1,1.2,0.4,1.5s0.6,0.5,1,0.5
			c0.4,0,0.7-0.2,1-0.5s0.4-0.8,0.4-1.5c0-0.7-0.1-1.1-0.4-1.5s-0.6-0.5-1-0.5c-0.4,0-0.7,0.2-1,0.5S62.7,119.4,62.7,120z"/>
		<path d="M68.1,120c0-0.5,0.1-1.1,0.4-1.6s0.7-0.9,1.1-1.2s1-0.4,1.7-0.4c0.9,0,1.7,0.3,2.3,0.9s0.9,1.4,0.9,2.3
			c0,0.9-0.3,1.7-0.9,2.3s-1.4,0.9-2.3,0.9c-0.6,0-1.1-0.1-1.6-0.4s-0.9-0.6-1.2-1.1S68.1,120.7,68.1,120z M69.8,120.1
			c0,0.6,0.1,1.1,0.4,1.4s0.7,0.5,1.1,0.5s0.8-0.2,1.1-0.5s0.4-0.8,0.4-1.4c0-0.6-0.1-1.1-0.4-1.4s-0.7-0.5-1.1-0.5
			s-0.8,0.2-1.1,0.5S69.8,119.5,69.8,120.1z"/>
		<path d="M75.7,117h1.6v4.9h2.3V117h1.6v4.9H82v3h-1.3v-1.6h-5V117z"/>
		<path d="M86.8,121.2l1.6,0.3c-0.2,0.6-0.5,1.1-1,1.4s-1,0.5-1.7,0.5c-1.1,0-1.9-0.4-2.4-1.1c-0.4-0.6-0.6-1.3-0.6-2.1
			c0-1,0.3-1.8,0.8-2.4s1.2-0.9,2-0.9c0.9,0,1.7,0.3,2.2,0.9s0.8,1.5,0.8,2.8h-4.1c0,0.5,0.1,0.9,0.4,1.1s0.6,0.4,0.9,0.4
			c0.3,0,0.5-0.1,0.7-0.2S86.7,121.5,86.8,121.2z M86.9,119.5c0-0.5-0.1-0.8-0.4-1.1s-0.5-0.4-0.9-0.4c-0.4,0-0.7,0.1-0.9,0.4
			s-0.3,0.6-0.3,1.1H86.9z"/>
		<path d="M89.8,117h1.6v2.3h2.4V117h1.7v6.2h-1.7v-2.6h-2.4v2.6h-1.6V117z"/>
		<path d="M96.3,117h5.6v1.3h-2v4.9h-1.6v-4.9h-2V117z"/>
		<path d="M102.9,117h1.6v2.3h2.4V117h1.7v6.2h-1.7v-2.6h-2.4v2.6h-1.6V117z"/>
		<path d="M111.4,118.9l-1.5-0.3c0.2-0.6,0.5-1,0.9-1.3s1-0.4,1.8-0.4c0.7,0,1.3,0.1,1.6,0.3s0.6,0.4,0.8,0.7s0.2,0.8,0.2,1.5l0,1.9
			c0,0.5,0,1,0.1,1.2s0.2,0.5,0.3,0.8H114c0-0.1-0.1-0.3-0.2-0.5c0-0.1,0-0.2-0.1-0.2c-0.3,0.3-0.6,0.5-0.9,0.6s-0.7,0.2-1,0.2
			c-0.6,0-1.1-0.2-1.5-0.5s-0.6-0.8-0.6-1.3c0-0.4,0.1-0.7,0.3-0.9s0.4-0.5,0.7-0.6s0.7-0.3,1.3-0.4c0.8-0.1,1.3-0.3,1.6-0.4V119
			c0-0.3-0.1-0.5-0.2-0.7s-0.5-0.2-0.9-0.2c-0.3,0-0.5,0.1-0.7,0.2S111.5,118.6,111.4,118.9z M113.6,120.2c-0.2,0.1-0.5,0.2-1,0.3
			s-0.8,0.2-0.9,0.3c-0.2,0.2-0.3,0.3-0.3,0.6c0,0.2,0.1,0.4,0.3,0.6s0.4,0.3,0.7,0.3c0.3,0,0.6-0.1,0.8-0.3
			c0.2-0.1,0.3-0.3,0.4-0.5c0-0.1,0.1-0.4,0.1-0.8V120.2z"/>
		<path d="M122.2,117v6.2h-1.6v-2.6h-0.2c-0.4,0-0.6,0-0.8,0.1s-0.4,0.3-0.6,0.6l-0.1,0.1l-1.1,1.7H116l1.2-1.8
			c0.3-0.5,0.6-0.8,0.9-0.9c-0.5,0-0.8-0.2-1.1-0.5s-0.4-0.7-0.4-1.2c0-0.4,0.1-0.7,0.3-1s0.4-0.5,0.8-0.6s0.8-0.2,1.4-0.2H122.2z
			 M120.6,118h-1.2c-0.4,0-0.7,0.1-0.9,0.2s-0.3,0.3-0.3,0.6s0.1,0.5,0.3,0.6s0.5,0.2,1,0.2h1.1V118z"/>
		<path d="M132.6,118.8l-1.6,0.3c-0.1-0.3-0.2-0.6-0.4-0.7s-0.4-0.2-0.8-0.2c-0.4,0-0.7,0.1-1,0.4s-0.4,0.8-0.4,1.4
			c0,0.7,0.1,1.3,0.4,1.6s0.6,0.5,1,0.5c0.3,0,0.6-0.1,0.8-0.3s0.3-0.5,0.4-0.9l1.6,0.3c-0.2,0.7-0.5,1.3-1,1.7s-1.1,0.6-1.9,0.6
			c-0.9,0-1.6-0.3-2.2-0.9s-0.8-1.4-0.8-2.4c0-1,0.3-1.8,0.8-2.4s1.3-0.9,2.2-0.9c0.8,0,1.4,0.2,1.8,0.5S132.5,118.1,132.6,118.8z"
			/>
		<path d="M133.8,117h1.6v2.5c0.3,0,0.5-0.1,0.6-0.3s0.2-0.4,0.4-0.9c0.2-0.6,0.4-1,0.7-1.2s0.6-0.3,1-0.3c0.1,0,0.3,0,0.7,0l0,1.1
			c-0.4,0-0.7,0-0.8,0.1c-0.1,0.1-0.3,0.3-0.4,0.8c-0.2,0.6-0.5,0.9-0.8,1.1c0.5,0.1,1,0.6,1.3,1.4c0,0,0,0.1,0.1,0.1l0.9,1.7h-1.8
			l-0.8-1.8c-0.2-0.4-0.3-0.6-0.4-0.7s-0.3-0.2-0.5-0.2v2.7h-1.6V117z"/>
		<path d="M139.9,117h1.6v3.9l2.5-3.9h1.6v6.2H144v-4l-2.6,4h-1.6V117z"/>
		<path d="M152.4,123.2h-4.7v1.6h-1.3v-3h0.7c0.3-0.3,0.5-0.8,0.7-1.5s0.3-1.8,0.3-3.4h5v4.9h0.7v3h-1.3V123.2z M151.5,121.8l0-3.5
			h-2c-0.1,1.7-0.3,2.9-0.8,3.5H151.5z"/>
		<path d="M154.8,117h1.6v2.5c0.3,0,0.5-0.1,0.6-0.3s0.2-0.4,0.4-0.9c0.2-0.6,0.4-1,0.7-1.2s0.6-0.3,1-0.3c0.1,0,0.3,0,0.7,0l0,1.1
			c-0.4,0-0.7,0-0.8,0.1c-0.1,0.1-0.3,0.3-0.4,0.8c-0.2,0.6-0.5,0.9-0.8,1.1c0.5,0.1,1,0.6,1.3,1.4c0,0,0,0.1,0.1,0.1l0.9,1.7h-1.8
			l-0.8-1.8c-0.2-0.4-0.3-0.6-0.4-0.7s-0.3-0.2-0.5-0.2v2.7h-1.6V117z"/>
		<path d="M162.1,118.9l-1.5-0.3c0.2-0.6,0.5-1,0.9-1.3s1-0.4,1.8-0.4c0.7,0,1.3,0.1,1.6,0.3s0.6,0.4,0.8,0.7s0.2,0.8,0.2,1.5l0,1.9
			c0,0.5,0,1,0.1,1.2s0.2,0.5,0.3,0.8h-1.6c0-0.1-0.1-0.3-0.2-0.5c0-0.1,0-0.2-0.1-0.2c-0.3,0.3-0.6,0.5-0.9,0.6s-0.7,0.2-1,0.2
			c-0.6,0-1.1-0.2-1.5-0.5s-0.6-0.8-0.6-1.3c0-0.4,0.1-0.7,0.3-0.9s0.4-0.5,0.7-0.6s0.7-0.3,1.3-0.4c0.8-0.1,1.3-0.3,1.6-0.4V119
			c0-0.3-0.1-0.5-0.2-0.7s-0.5-0.2-0.9-0.2c-0.3,0-0.5,0.1-0.7,0.2S162.2,118.6,162.1,118.9z M164.3,120.2c-0.2,0.1-0.5,0.2-1,0.3
			s-0.8,0.2-0.9,0.3c-0.2,0.2-0.3,0.3-0.3,0.6c0,0.2,0.1,0.4,0.3,0.6s0.4,0.3,0.7,0.3c0.3,0,0.6-0.1,0.8-0.3
			c0.2-0.1,0.3-0.3,0.4-0.5c0-0.1,0.1-0.4,0.1-0.8V120.2z"/>
		<path d="M167.9,118.6V117h1.6v1.6H167.9z M167.9,123.2v-1.6h1.6v1.6H167.9z"/>
		<path d="M52.5,129H59v1.4h-4.7v2h2.3c0.6,0,1.2,0.1,1.6,0.2s0.8,0.4,1.1,0.9s0.4,0.9,0.4,1.5c0,0.6-0.2,1.1-0.5,1.5
			s-0.6,0.7-1,0.8s-0.9,0.2-1.6,0.2h-4.1V129z M54.3,136.1H56c0.5,0,0.9,0,1.1-0.1s0.4-0.2,0.6-0.4s0.2-0.4,0.2-0.7
			c0-0.4-0.1-0.7-0.4-0.9s-0.8-0.3-1.5-0.3h-1.8V136.1z"/>
		<path d="M60.7,134.4c0-0.5,0.1-1.1,0.4-1.6s0.7-0.9,1.1-1.2s1-0.4,1.7-0.4c0.9,0,1.7,0.3,2.3,0.9s0.9,1.4,0.9,2.3
			c0,0.9-0.3,1.7-0.9,2.3s-1.4,0.9-2.3,0.9c-0.6,0-1.1-0.1-1.6-0.4s-0.9-0.6-1.2-1.1S60.7,135.1,60.7,134.4z M62.4,134.5
			c0,0.6,0.1,1.1,0.4,1.4s0.7,0.5,1.1,0.5s0.8-0.2,1.1-0.5s0.4-0.8,0.4-1.4c0-0.6-0.1-1.1-0.4-1.4s-0.7-0.5-1.1-0.5
			s-0.8,0.2-1.1,0.5S62.4,133.9,62.4,134.5z"/>
		<path d="M68.4,131.4H70v2.3h2.4v-2.3H74v6.2h-1.7V135H70v2.6h-1.6V131.4z"/>
		<path d="M74.9,131.4h1.8l1.5,4.4l1.5-4.4h1.7l-2.2,6l-0.4,1.1c-0.1,0.4-0.3,0.6-0.4,0.8s-0.3,0.3-0.5,0.5s-0.4,0.2-0.6,0.3
			s-0.5,0.1-0.8,0.1c-0.3,0-0.6,0-0.9-0.1l-0.1-1.3c0.3,0.1,0.5,0.1,0.7,0.1c0.4,0,0.7-0.1,0.8-0.3s0.3-0.5,0.4-0.9L74.9,131.4z"/>
		<path d="M87.5,133.2l-1.6,0.3c-0.1-0.3-0.2-0.6-0.4-0.7s-0.4-0.2-0.8-0.2c-0.4,0-0.7,0.1-1,0.4s-0.4,0.8-0.4,1.4
			c0,0.7,0.1,1.3,0.4,1.6s0.6,0.5,1,0.5c0.3,0,0.6-0.1,0.8-0.3s0.3-0.5,0.4-0.9l1.6,0.3c-0.2,0.7-0.5,1.3-1,1.7s-1.1,0.6-1.9,0.6
			c-0.9,0-1.6-0.3-2.2-0.9s-0.8-1.4-0.8-2.4c0-1,0.3-1.8,0.8-2.4s1.3-0.9,2.2-0.9c0.8,0,1.4,0.2,1.8,0.5S87.3,132.5,87.5,133.2z"/>
		<path d="M88.4,134.4c0-0.5,0.1-1.1,0.4-1.6s0.7-0.9,1.1-1.2s1-0.4,1.7-0.4c0.9,0,1.7,0.3,2.3,0.9s0.9,1.4,0.9,2.3
			c0,0.9-0.3,1.7-0.9,2.3s-1.4,0.9-2.3,0.9c-0.6,0-1.1-0.1-1.6-0.4s-0.9-0.6-1.2-1.1S88.4,135.1,88.4,134.4z M90.1,134.5
			c0,0.6,0.1,1.1,0.4,1.4s0.7,0.5,1.1,0.5s0.8-0.2,1.1-0.5s0.4-0.8,0.4-1.4c0-0.6-0.1-1.1-0.4-1.4s-0.7-0.5-1.1-0.5
			s-0.8,0.2-1.1,0.5S90.1,133.9,90.1,134.5z"/>
		<path d="M96.1,131.4h3.6c0.7,0,1.3,0.1,1.7,0.4s0.6,0.7,0.6,1.2c0,0.3-0.1,0.7-0.3,0.9s-0.5,0.4-0.8,0.5c0.4,0.1,0.8,0.3,1,0.6
			s0.3,0.6,0.3,0.9c0,0.5-0.2,0.9-0.5,1.2s-0.9,0.5-1.6,0.5h-3.9V131.4z M97.8,134h1.1c0.5,0,0.9-0.1,1.1-0.2s0.3-0.3,0.3-0.6
			c0-0.3-0.1-0.4-0.3-0.6s-0.6-0.2-1.1-0.2h-1.1V134z M97.8,136.5h1.3c0.5,0,0.8-0.1,1-0.2s0.3-0.3,0.3-0.6c0-0.3-0.1-0.5-0.4-0.6
			s-0.7-0.2-1.4-0.2h-0.8V136.5z"/>
		<path d="M106.7,131.4h5.5v6.2h-1.6v-4.9h-2.2v4.9h-1.6V131.4z"/>
		<path d="M113.7,134.4c0-0.5,0.1-1.1,0.4-1.6s0.7-0.9,1.1-1.2s1-0.4,1.7-0.4c0.9,0,1.7,0.3,2.3,0.9s0.9,1.4,0.9,2.3
			c0,0.9-0.3,1.7-0.9,2.3s-1.4,0.9-2.3,0.9c-0.6,0-1.1-0.1-1.6-0.4s-0.9-0.6-1.2-1.1S113.7,135.1,113.7,134.4z M115.4,134.5
			c0,0.6,0.1,1.1,0.4,1.4s0.7,0.5,1.1,0.5s0.8-0.2,1.1-0.5s0.4-0.8,0.4-1.4c0-0.6-0.1-1.1-0.4-1.4s-0.7-0.5-1.1-0.5
			s-0.8,0.2-1.1,0.5S115.4,133.9,115.4,134.5z"/>
		<path d="M124.6,131.4h1.6v2.5c0.3,0,0.5-0.1,0.6-0.3s0.2-0.4,0.4-0.9c0.2-0.6,0.4-1,0.7-1.2s0.6-0.3,1-0.3c0.1,0,0.3,0,0.7,0
			l0,1.1c-0.4,0-0.7,0-0.8,0.1c-0.1,0.1-0.3,0.3-0.4,0.8c-0.2,0.6-0.5,0.9-0.8,1.1c0.5,0.1,1,0.6,1.3,1.4c0,0,0,0.1,0.1,0.1l0.9,1.7
			h-1.8l-0.8-1.8c-0.2-0.4-0.3-0.6-0.4-0.7s-0.3-0.2-0.5-0.2v2.7h-1.6V131.4z"/>
		<path d="M131.9,133.3l-1.5-0.3c0.2-0.6,0.5-1,0.9-1.3s1-0.4,1.8-0.4c0.7,0,1.3,0.1,1.6,0.3s0.6,0.4,0.8,0.7s0.2,0.8,0.2,1.5l0,1.9
			c0,0.5,0,1,0.1,1.2s0.2,0.5,0.3,0.8h-1.6c0-0.1-0.1-0.3-0.2-0.5c0-0.1,0-0.2-0.1-0.2c-0.3,0.3-0.6,0.5-0.9,0.6s-0.7,0.2-1,0.2
			c-0.6,0-1.1-0.2-1.5-0.5s-0.6-0.8-0.6-1.3c0-0.4,0.1-0.7,0.3-0.9s0.4-0.5,0.7-0.6s0.7-0.3,1.3-0.4c0.8-0.1,1.3-0.3,1.6-0.4v-0.2
			c0-0.3-0.1-0.5-0.2-0.7s-0.5-0.2-0.9-0.2c-0.3,0-0.5,0.1-0.7,0.2S132,133,131.9,133.3z M134.1,134.6c-0.2,0.1-0.5,0.2-1,0.3
			s-0.8,0.2-0.9,0.3c-0.2,0.2-0.3,0.3-0.3,0.6c0,0.2,0.1,0.4,0.3,0.6s0.4,0.3,0.7,0.3c0.3,0,0.6-0.1,0.8-0.3
			c0.2-0.1,0.3-0.3,0.4-0.5c0-0.1,0.1-0.4,0.1-0.8V134.6z"/>
		<path d="M137.3,131.4h1.5v0.9c0.2-0.3,0.5-0.6,0.8-0.8s0.7-0.3,1.1-0.3c0.7,0,1.3,0.3,1.8,0.8s0.8,1.4,0.8,2.4
			c0,1-0.3,1.8-0.8,2.4s-1.1,0.9-1.8,0.9c-0.3,0-0.7-0.1-0.9-0.2s-0.6-0.4-0.9-0.7v3.1h-1.6V131.4z M139,134.4
			c0,0.7,0.1,1.2,0.4,1.5s0.6,0.5,1,0.5c0.4,0,0.7-0.2,1-0.5s0.4-0.8,0.4-1.5c0-0.7-0.1-1.1-0.4-1.5s-0.6-0.5-1-0.5
			c-0.4,0-0.7,0.2-1,0.5S139,133.8,139,134.4z"/>
		<path d="M143.8,131.4h5.6v1.3h-2v4.9h-1.6v-4.9h-2V131.4z"/>
		<path d="M154,135.6l1.6,0.3c-0.2,0.6-0.5,1.1-1,1.4s-1,0.5-1.7,0.5c-1.1,0-1.9-0.4-2.4-1.1c-0.4-0.6-0.6-1.3-0.6-2.1
			c0-1,0.3-1.8,0.8-2.4s1.2-0.9,2-0.9c0.9,0,1.7,0.3,2.2,0.9s0.8,1.5,0.8,2.8h-4.1c0,0.5,0.1,0.9,0.4,1.1s0.6,0.4,0.9,0.4
			c0.3,0,0.5-0.1,0.7-0.2S153.9,135.9,154,135.6z M154.1,133.9c0-0.5-0.1-0.8-0.4-1.1s-0.5-0.4-0.9-0.4c-0.4,0-0.7,0.1-0.9,0.4
			s-0.3,0.6-0.3,1.1H154.1z"/>
		<path d="M157.4,133v-1.6h1.6v1.6H157.4z M157.4,137.6v-1.6h1.6v1.6H157.4z"/>
	</g>
	<g>
		<path d="M296.8,106.4l1.6-0.2c0,0.4,0.2,0.7,0.4,0.9s0.5,0.3,0.8,0.3c0.3,0,0.6-0.1,0.9-0.4s0.4-0.7,0.4-1.3
			c0-0.5-0.1-0.9-0.4-1.2s-0.5-0.4-0.9-0.4c-0.5,0-0.9,0.2-1.3,0.6l-1.3-0.2l0.8-4.5h4.4v1.5h-3.1l-0.3,1.5c0.4-0.2,0.7-0.3,1.1-0.3
			c0.7,0,1.3,0.3,1.9,0.8s0.8,1.2,0.8,2.1c0,0.7-0.2,1.3-0.6,1.9c-0.6,0.8-1.3,1.1-2.3,1.1c-0.8,0-1.4-0.2-1.9-0.6
			S296.9,107.2,296.8,106.4z"/>
		<path d="M303.8,108.6V107h1.6v1.6H303.8z"/>
		<path d="M309.6,100c0.8,0,1.5,0.3,2,0.9c0.6,0.7,0.8,1.9,0.8,3.5c0,1.6-0.3,2.8-0.8,3.5c-0.5,0.6-1.1,0.9-1.9,0.9
			c-0.8,0-1.5-0.3-2-1s-0.8-1.8-0.8-3.4c0-1.6,0.3-2.8,0.8-3.5C308.1,100.3,308.8,100,309.6,100z M309.6,101.4
			c-0.2,0-0.4,0.1-0.5,0.2s-0.3,0.4-0.4,0.7c-0.1,0.4-0.2,1.1-0.2,2.2s0.1,1.7,0.2,2.1s0.2,0.6,0.4,0.8s0.3,0.2,0.5,0.2
			s0.4-0.1,0.5-0.2s0.3-0.4,0.4-0.7c0.1-0.4,0.2-1.1,0.2-2.1s-0.1-1.7-0.2-2.1s-0.2-0.6-0.4-0.8S309.8,101.4,309.6,101.4z"/>
		<path d="M316.3,100c0.8,0,1.5,0.3,2,0.9c0.6,0.7,0.8,1.9,0.8,3.5c0,1.6-0.3,2.8-0.8,3.5c-0.5,0.6-1.1,0.9-1.9,0.9
			c-0.8,0-1.5-0.3-2-1s-0.8-1.8-0.8-3.4c0-1.6,0.3-2.8,0.8-3.5C314.8,100.3,315.4,100,316.3,100z M316.3,101.4
			c-0.2,0-0.4,0.1-0.5,0.2s-0.3,0.4-0.4,0.7c-0.1,0.4-0.2,1.1-0.2,2.2s0.1,1.7,0.2,2.1s0.2,0.6,0.4,0.8s0.3,0.2,0.5,0.2
			s0.4-0.1,0.5-0.2s0.3-0.4,0.4-0.7c0.1-0.4,0.2-1.1,0.2-2.1s-0.1-1.7-0.2-2.1s-0.2-0.6-0.4-0.8S316.5,101.4,316.3,101.4z"/>
		<path d="M299.6,114.4c0.8,0,1.5,0.3,2,0.9c0.6,0.7,0.8,1.9,0.8,3.5c0,1.6-0.3,2.8-0.8,3.5c-0.5,0.6-1.1,0.9-1.9,0.9
			c-0.8,0-1.5-0.3-2-1s-0.8-1.8-0.8-3.4c0-1.6,0.3-2.8,0.8-3.5C298.1,114.7,298.7,114.4,299.6,114.4z M299.6,115.8
			c-0.2,0-0.4,0.1-0.5,0.2s-0.3,0.4-0.4,0.7c-0.1,0.4-0.2,1.1-0.2,2.2s0.1,1.7,0.2,2.1s0.2,0.6,0.4,0.8s0.3,0.2,0.5,0.2
			s0.4-0.1,0.5-0.2s0.3-0.4,0.4-0.7c0.1-0.4,0.2-1.1,0.2-2.1s-0.1-1.7-0.2-2.1s-0.2-0.6-0.4-0.8S299.8,115.8,299.6,115.8z"/>
		<path d="M303.8,123v-1.6h1.6v1.6H303.8z"/>
		<path d="M312.4,121.5v1.5h-5.8c0.1-0.6,0.2-1.1,0.6-1.6s0.9-1.2,1.9-2.1c0.7-0.7,1.2-1.2,1.4-1.4c0.2-0.3,0.3-0.7,0.3-1
			c0-0.4-0.1-0.6-0.3-0.8s-0.5-0.3-0.8-0.3c-0.3,0-0.6,0.1-0.8,0.3s-0.3,0.6-0.4,1l-1.6-0.2c0.1-0.9,0.4-1.6,0.9-2s1.2-0.6,1.9-0.6
			c0.8,0,1.5,0.2,2,0.7s0.7,1,0.7,1.7c0,0.4-0.1,0.8-0.2,1.1s-0.4,0.7-0.7,1.1c-0.2,0.3-0.6,0.6-1.1,1.1s-0.8,0.8-1,0.9
			s-0.3,0.3-0.3,0.5H312.4z"/>
		<path d="M313.5,120.8l1.6-0.2c0,0.4,0.2,0.7,0.4,0.9s0.5,0.3,0.8,0.3c0.3,0,0.6-0.1,0.9-0.4s0.4-0.7,0.4-1.3
			c0-0.5-0.1-0.9-0.4-1.2s-0.5-0.4-0.9-0.4c-0.5,0-0.9,0.2-1.3,0.6l-1.3-0.2l0.8-4.5h4.4v1.5h-3.1l-0.3,1.5c0.4-0.2,0.7-0.3,1.1-0.3
			c0.7,0,1.3,0.3,1.9,0.8s0.8,1.2,0.8,2.1c0,0.7-0.2,1.3-0.6,1.9c-0.6,0.8-1.3,1.1-2.3,1.1c-0.8,0-1.4-0.2-1.9-0.6
			S313.6,121.6,313.5,120.8z"/>
		<path d="M299.6,128.8c0.8,0,1.5,0.3,2,0.9c0.6,0.7,0.8,1.9,0.8,3.5c0,1.6-0.3,2.8-0.8,3.5c-0.5,0.6-1.1,0.9-1.9,0.9
			c-0.8,0-1.5-0.3-2-1s-0.8-1.8-0.8-3.4c0-1.6,0.3-2.8,0.8-3.5C298.1,129.1,298.7,128.8,299.6,128.8z M299.6,130.2
			c-0.2,0-0.4,0.1-0.5,0.2s-0.3,0.4-0.4,0.7c-0.1,0.4-0.2,1.1-0.2,2.2s0.1,1.7,0.2,2.1s0.2,0.6,0.4,0.8s0.3,0.2,0.5,0.2
			s0.4-0.1,0.5-0.2s0.3-0.4,0.4-0.7c0.1-0.4,0.2-1.1,0.2-2.1s-0.1-1.7-0.2-2.1s-0.2-0.6-0.4-0.8S299.8,130.2,299.6,130.2z"/>
		<path d="M303.8,137.4v-1.6h1.6v1.6H303.8z"/>
		<path d="M309.6,128.8c0.8,0,1.5,0.3,2,0.9c0.6,0.7,0.8,1.9,0.8,3.5c0,1.6-0.3,2.8-0.8,3.5c-0.5,0.6-1.1,0.9-1.9,0.9
			c-0.8,0-1.5-0.3-2-1s-0.8-1.8-0.8-3.4c0-1.6,0.3-2.8,0.8-3.5C308.1,129.1,308.8,128.8,309.6,128.8z M309.6,130.2
			c-0.2,0-0.4,0.1-0.5,0.2s-0.3,0.4-0.4,0.7c-0.1,0.4-0.2,1.1-0.2,2.2s0.1,1.7,0.2,2.1s0.2,0.6,0.4,0.8s0.3,0.2,0.5,0.2
			s0.4-0.1,0.5-0.2s0.3-0.4,0.4-0.7c0.1-0.4,0.2-1.1,0.2-2.1s-0.1-1.7-0.2-2.1s-0.2-0.6-0.4-0.8S309.8,130.2,309.6,130.2z"/>
		<path d="M313.5,130.5V129h5.6v1.2c-0.5,0.5-0.9,1.1-1.4,2s-0.8,1.8-1.1,2.7s-0.4,1.8-0.4,2.6h-1.6c0-1.2,0.3-2.4,0.7-3.6
			s1.1-2.3,1.9-3.3H313.5z"/>
	</g>
</g>
<rect x="36.4" y="57" class="st0" width="303" height="37"/>
</svg>
